<svg viewBox="0 0 24 24" xmlns="http://www.w3.org/2000/svg">
  <path d="M15.4082 5.89258L14.9521 7.5918C15.6512 7.83577 16.3086 8.17536 16.9072 8.59229L18.2666 7.41797C17.4005 6.76628 16.4435 6.25065 15.4082 5.89258ZM8.5918 5.89258C7.55649 6.25065 6.59948 6.76628 5.7334 7.41797L7.09277 8.59229C7.69141 8.17536 8.34879 7.83577 9.04785 7.5918L8.5918 5.89258ZM12 8.5C9.72656 8.5 7.69075 9.66602 6.58691 11.5C7.69075 13.334 9.72656 14.5 12 14.5C14.2734 14.5 16.3092 13.334 17.4131 11.5C16.3092 9.66602 14.2734 8.5 12 8.5ZM4.95801 9.62305L3.33496 8.74414L2.58496 10.1299L4.16992 10.9893C4.38346 10.5067 4.64876 10.0508 4.95801 9.62305ZM19.042 9.62305C19.3512 10.0508 19.6165 10.5067 19.8301 10.9893L21.415 10.1299L20.665 8.74414L19.042 9.62305ZM12 9.75C12.9668 9.75 13.75 10.5332 13.75 11.5C13.75 12.4668 12.9668 13.25 12 13.25C11.0332 13.25 10.25 12.4668 10.25 11.5C10.25 10.5332 11.0332 9.75 12 9.75ZM4.16992 12.0107L2.58496 12.8701L3.33496 14.2559L4.95801 13.377C4.64876 12.9492 4.38346 12.4933 4.16992 12.0107ZM19.8301 12.0107C19.6165 12.4933 19.3512 12.9492 19.042 13.377L20.665 14.2559L21.415 12.8701L19.8301 12.0107ZM7.09277 14.4077L5.7334 15.582C6.59948 16.2337 7.55649 16.7493 8.5918 17.1074L9.04785 15.4082C8.34879 15.1642 7.69141 14.8246 7.09277 14.4077ZM16.9072 14.4077C16.3086 14.8246 15.6512 15.1642 14.9521 15.4082L15.4082 17.1074C16.4435 16.7493 17.4005 16.2337 18.2666 15.582L16.9072 14.4077Z" fill="#969A9F"/>
</svg>
