<svg 
  width="24" 
  height="24" 
  viewBox="0 0 24 24" 
  fill="none" 
  xmlns="http://www.w3.org/2000/svg"
>
  <path 
    d="M5.60156 8.40393C6.18565 9.60206 7.09496 10.612 8.22559 11.318C9.35282 12.0355 10.6638 12.4119 12 12.403V12.399C13.3354 12.409 14.6452 12.0339 15.7725 11.318C16.9031 10.612 17.8123 9.60204 18.3965 8.40393H20C19.5567 9.55904 18.8652 10.595 17.9834 11.4459L19.0156 13.2321L17.6299 14.0319L16.7178 12.4537C16.2201 12.7839 15.6922 13.0598 15.1416 13.276L15.5957 14.9684L14.0508 15.3824L13.6035 13.7164C13.0774 13.8143 12.5406 13.8622 12 13.858C11.7667 13.8599 11.5341 13.851 11.3027 13.8336L10.8291 15.6061L9.2832 15.192L9.71973 13.5612C8.99197 13.3627 8.29189 13.0668 7.63867 12.6793L6.8584 14.0319L5.47363 13.2321L6.33398 11.7389C5.29924 10.8378 4.49518 9.69485 4 8.40393H5.60156ZM18.3965 8.40393H5.60156C5.60094 8.40266 5.60023 8.40129 5.59961 8.40002H18.3984C18.3978 8.40133 18.3971 8.40262 18.3965 8.40393Z" 
    fill="#AEAEAE"
  />
</svg>