<svg width="18" height="18" viewBox="0 0 18 18" fill="none" xmlns="http://www.w3.org/2000/svg">
<g clip-path="url(#clip0_210_2216)">
<mask id="mask0_210_2216" style="mask-type:luminance" maskUnits="userSpaceOnUse" x="0" y="0" width="18" height="18">
<path d="M18 0H0V18H18V0Z" fill="white"/>
</mask>
<g mask="url(#mask0_210_2216)">
<path d="M17.64 9.207C17.64 8.568 17.586 7.956 17.478 7.362H9V10.845H13.842C13.635 11.97 12.996 12.924 12.042 13.563V15.822H14.949C16.65 14.256 17.631 11.952 17.631 9.207H17.64Z" fill="#4285F4"/>
<path d="M9.0001 18C11.4301 18 13.4641 17.19 14.9581 15.822L12.0511 13.563C11.2411 14.103 10.2151 14.418 9.0001 14.418C6.6601 14.418 4.6711 12.834 3.9601 10.71H0.954102V13.041C2.4391 15.984 5.4811 18 9.0001 18Z" fill="#34A853"/>
<path d="M3.96 10.71C3.78 10.17 3.681 9.59401 3.681 9.00001C3.681 8.40601 3.78 7.83001 3.96 7.29001V4.95901H0.954C0.342 6.17401 0 7.55101 0 9.00001C0 10.449 0.351 11.826 0.954 13.041L3.96 10.71Z" fill="#FBBC04"/>
<path d="M9.0001 3.582C10.3231 3.582 11.5111 4.032 12.4381 4.932L15.0211 2.349C13.4641 0.900002 11.4211 0.00900218 9.0001 0.00900218C5.4811 2.18023e-06 2.4391 2.016 0.954102 4.959L3.9601 7.29C4.6711 5.166 6.6511 3.582 9.0001 3.582Z" fill="#E94235"/>
</g>
</g>
<defs>
<clipPath id="clip0_210_2216">
<rect width="18" height="18" fill="white"/>
</clipPath>
</defs>
</svg>
