<svg width="18" height="18" viewBox="0 0 18 18" fill="none" xmlns="http://www.w3.org/2000/svg">
<path d="M8.99979 15.825C8.06036 15.825 7.17599 15.6471 6.34668 15.2913C5.51735 14.9355 4.79259 14.4476 4.17239 13.8274C3.5522 13.2072 3.06423 12.4824 2.70847 11.6531C2.35269 10.8238 2.1748 9.93939 2.1748 8.99997C2.1748 8.05286 2.35269 7.16656 2.70847 6.34109C3.06423 5.51561 3.5522 4.79278 4.17239 4.17258C4.79259 3.55239 5.51735 3.06441 6.34668 2.70865C7.17599 2.35288 8.06036 2.17499 8.99979 2.17499C9.9469 2.17499 10.8332 2.35288 11.6587 2.70865C12.4841 3.06441 13.207 3.55239 13.8272 4.17258C14.4474 4.79278 14.9353 5.51561 15.2911 6.34109C15.6469 7.16656 15.8248 8.05286 15.8248 8.99997C15.8248 9.93939 15.6469 10.8238 15.2911 11.6531C14.9353 12.4824 14.4474 13.2072 13.8272 13.8274C13.207 14.4476 12.4841 14.9355 11.6587 15.2913C10.8332 15.6471 9.9469 15.825 8.99979 15.825ZM8.99979 14.8154C9.26999 14.5452 9.52336 14.105 9.75989 13.4949C9.99643 12.8848 10.1782 12.2048 10.3051 11.4548H7.69449C7.83102 12.224 8.01516 12.9137 8.2469 13.5238C8.47862 14.1339 8.72959 14.5644 8.99979 14.8154ZM7.79116 14.7216C7.55366 14.3466 7.33924 13.8745 7.14789 13.3053C6.95654 12.736 6.8099 12.1192 6.70797 11.4548H3.69496C4.09112 12.3211 4.6505 13.0411 5.3731 13.6146C6.09572 14.1882 6.90174 14.5572 7.79116 14.7216ZM10.2084 14.7216C11.0978 14.5572 11.9039 14.1882 12.6265 13.6146C13.3491 13.0411 13.9084 12.3211 14.3046 11.4548H11.2916C11.1656 12.124 11.007 12.7432 10.8156 13.3125C10.6243 13.8817 10.4219 14.3514 10.2084 14.7216ZM3.35459 10.4798H6.61134C6.57672 10.2134 6.55509 9.95263 6.54644 9.69734C6.53779 9.44204 6.53347 9.19708 6.53347 8.96247C6.53347 8.72786 6.53779 8.48915 6.54644 8.24635C6.55509 8.00356 6.57672 7.76149 6.61134 7.52014H3.35459C3.28248 7.76246 3.23032 8.00861 3.1981 8.25861C3.16589 8.50861 3.14979 8.75573 3.14979 8.99997C3.14979 9.24421 3.16589 9.49133 3.1981 9.74133C3.23032 9.99133 3.28248 10.2375 3.35459 10.4798ZM7.60507 10.4798H10.3945C10.4291 10.2009 10.4508 9.94253 10.4594 9.70454C10.4681 9.46656 10.4724 9.23171 10.4724 8.99997C10.4724 8.76823 10.4681 8.53025 10.4594 8.28603C10.4508 8.04179 10.4291 7.78649 10.3945 7.52014H7.60507C7.57045 7.78649 7.54882 8.04179 7.54015 8.28603C7.5315 8.53025 7.52718 8.76823 7.52718 8.99997C7.52718 9.23171 7.5315 9.46969 7.54015 9.71391C7.54882 9.95815 7.57045 10.2134 7.60507 10.4798ZM11.3882 10.4798H14.645C14.7171 10.2375 14.7693 9.99133 14.8015 9.74133C14.8337 9.49133 14.8498 9.24421 14.8498 8.99997C14.8498 8.75573 14.8337 8.50549 14.8015 8.24924C14.7693 7.99299 14.7171 7.74996 14.645 7.52014H11.3882C11.4228 7.78649 11.4445 8.04731 11.4531 8.3026C11.4618 8.5579 11.4661 8.80286 11.4661 9.03747C11.4661 9.27208 11.4618 9.51079 11.4531 9.75359C11.4445 9.99638 11.4228 10.2384 11.3882 10.4798ZM11.2916 6.54518H14.3046C13.9036 5.66921 13.3479 4.94924 12.6373 4.38529C11.9267 3.82136 11.1171 3.44996 10.2084 3.27111C10.4459 3.67015 10.6579 4.15068 10.8445 4.71271C11.031 5.27473 11.1801 5.88556 11.2916 6.54518ZM7.69449 6.54518H10.3051C10.1685 5.78076 9.9808 5.08748 9.74186 4.46536C9.50292 3.84324 9.25556 3.41632 8.99979 3.18458C8.74401 3.41632 8.49665 3.84324 8.25772 4.46536C8.01877 5.08748 7.83102 5.78076 7.69449 6.54518ZM3.69496 6.54518H6.70797C6.81951 5.88556 6.96855 5.27473 7.1551 4.71271C7.34164 4.15068 7.55366 3.67015 7.79116 3.27111C6.8777 3.44996 6.06687 3.82256 5.35869 4.38891C4.65051 4.95526 4.09594 5.67402 3.69496 6.54518Z" fill="#B7B7B7"/>
</svg>
