<svg width="18" height="18" viewBox="0 0 18 18" fill="none" xmlns="http://www.w3.org/2000/svg">
<g clip-path="url(#clip0_125_3759)">
<path d="M13.5 6H12.75V4.5C12.75 2.43 11.07 0.75 9 0.75C6.93 0.75 5.25 2.43 5.25 4.5V6H4.5C3.675 6 3 6.675 3 7.5V15C3 15.825 3.675 16.5 4.5 16.5H13.5C14.325 16.5 15 15.825 15 15V7.5C15 6.675 14.325 6 13.5 6ZM6.675 4.5C6.675 3.2175 7.7175 2.175 9 2.175C10.2825 2.175 11.325 3.2175 11.325 4.5V6H6.675V4.5ZM13.5 15H4.5V7.5H13.5V15Z" fill="white"/>
</g>
<defs>
<clipPath id="clip0_125_3759">
<rect width="18" height="18" fill="white"/>
</clipPath>
</defs>
</svg>
