<svg viewBox="0 0 24 24" xmlns="http://www.w3.org/2000/svg">
  <path d="M7.5 20C7.0875 20 6.73438 19.8508 6.44063 19.5524C6.14687 19.254 6 18.8952 6 18.4762V10.8571C6 10.4381 6.14687 10.0794 6.44063 9.78095C6.73438 9.48254 7.0875 9.33333 7.5 9.33333H8.25V7.80952C8.25 6.75556 8.61563 5.85714 9.34688 5.11429C10.0781 4.37143 10.9625 4 12 4C13.0375 4 13.9219 4.37143 14.6531 5.11429C15.3844 5.85714 15.75 6.75556 15.75 7.80952V9.33333H16.5C16.9125 9.33333 17.2656 9.48254 17.5594 9.78095C17.8531 10.0794 18 10.4381 18 10.8571V18.4762C18 18.8952 17.8531 19.254 17.5594 19.5524C17.2656 19.8508 16.9125 20 16.5 20H7.5ZM7.5 18.4762H16.5V10.8571H7.5V18.4762ZM12 16.1905C12.4125 16.1905 12.7656 16.0413 13.0594 15.7429C13.3531 15.4444 13.5 15.0857 13.5 14.6667C13.5 14.2476 13.3531 13.8889 13.0594 13.5905C12.7656 13.2921 12.4125 13.1429 12 13.1429C11.5875 13.1429 11.2344 13.2921 10.9406 13.5905C10.6469 13.8889 10.5 14.2476 10.5 14.6667C10.5 15.0857 10.6469 15.4444 10.9406 15.7429C11.2344 16.0413 11.5875 16.1905 12 16.1905ZM9.75 9.33333H14.25V7.80952C14.25 7.1746 14.0312 6.63492 13.5938 6.19048C13.1563 5.74603 12.625 5.52381 12 5.52381C11.375 5.52381 10.8438 5.74603 10.4062 6.19048C9.96875 6.63492 9.75 7.1746 9.75 7.80952V9.33333Z" fill="#969A9F"/>
</svg>
