<svg width="20" height="20" viewBox="0 0 20 20" fill="none" xmlns="http://www.w3.org/2000/svg">
<path d="M13.75 7.66667H13.125V6.33333C13.125 4.49333 11.725 3 10 3C8.275 3 6.875 4.49333 6.875 6.33333V7.66667H6.25C5.5625 7.66667 5 8.26667 5 9V15.6667C5 16.4 5.5625 17 6.25 17H13.75C14.4375 17 15 16.4 15 15.6667V9C15 8.26667 14.4375 7.66667 13.75 7.66667ZM8.0625 6.33333C8.0625 5.19333 8.93125 4.26667 10 4.26667C11.0687 4.26667 11.9375 5.19333 11.9375 6.33333V7.66667H8.0625V6.33333ZM13.75 15.6667H6.25V9H13.75V15.6667Z" fill="#AFADB4"/>
</svg>
