<svg
    viewBox="0 0 24 24"
    xmlns="http://www.w3.org/2000/svg"
  >
    <path d="M12.0001 7.74822C12.0001 7.74822 12.0776 10.5217 14.3846 11.7777C15.5739 10.8852 16.2624 9.34978 15.9166 7.6761C15.5947 6.1106 14.3339 4.86661 12.7751 4.57214C10.2236 4.09137 7.99414 6.0505 7.99414 8.53848C7.99414 9.86661 8.63199 11.0415 9.6156 11.7777C11.9226 10.5217 12.0001 7.74822 12.0001 7.74822Z" fill="currentColor"/>
    <path d="M10.0387 12.033C9.93731 11.9759 9.84193 11.9158 9.74655 11.8497C9.70185 11.8227 9.66012 11.7927 9.61243 11.7686C8.87919 11.4441 8.02971 11.3269 7.14149 11.5192C5.57964 11.8527 4.3397 13.1418 4.0625 14.7314C3.61839 17.2824 5.5558 19.5 8.00289 19.5C10.1489 19.5 11.8926 17.7993 11.9969 15.6628C11.9492 15.125 11.6661 13.1809 10.0357 12.033H10.0387Z" fill="currentColor"/>
    <path d="M16.8555 11.5162C15.9673 11.3269 15.1178 11.4411 14.3846 11.7656C14.3369 11.7927 14.2951 11.8197 14.2504 11.8468C14.155 11.9129 14.0567 11.973 13.9583 12.0301C12.3279 13.1779 12.0448 15.122 11.9971 15.6599C12.1014 17.7963 13.848 19.497 15.9911 19.497C18.4412 19.497 20.3756 17.2795 19.9315 14.7284C19.6543 13.1388 18.4144 11.8498 16.8495 11.5132L16.8555 11.5162Z" fill="currentColor"/>
</svg>
