<svg width="20" height="20" viewBox="0 0 20 20" fill="none" xmlns="http://www.w3.org/2000/svg">
<g clip-path="url(#clip0_252_2763)">
<path d="M9 4.5C11.8425 4.5 14.3775 6.0975 15.615 8.625C15.1725 9.54 14.55 10.3275 13.8075 10.965L14.865 12.0225C15.9075 11.1 16.7325 9.945 17.25 8.625C15.9525 5.3325 12.75 3 9 3C8.0475 3 7.1325 3.15 6.27 3.4275L7.5075 4.665C7.995 4.5675 8.49 4.5 9 4.5ZM8.1975 5.355L9.75 6.9075C10.1775 7.095 10.5225 7.44 10.71 7.8675L12.2625 9.42C12.3225 9.165 12.3675 8.895 12.3675 8.6175C12.375 6.7575 10.86 5.25 9 5.25C8.7225 5.25 8.46 5.2875 8.1975 5.355ZM1.5075 2.9025L3.5175 4.9125C2.295 5.8725 1.3275 7.1475 0.75 8.625C2.0475 11.9175 5.25 14.25 9 14.25C10.14 14.25 11.235 14.0325 12.24 13.635L14.805 16.2L15.8625 15.1425L2.565 1.8375L1.5075 2.9025ZM7.1325 8.5275L9.09 10.485C9.06 10.4925 9.03 10.5 9 10.5C7.965 10.5 7.125 9.66 7.125 8.625C7.125 8.5875 7.1325 8.565 7.1325 8.5275ZM4.5825 5.9775L5.895 7.29C5.7225 7.7025 5.625 8.1525 5.625 8.625C5.625 10.485 7.14 12 9 12C9.4725 12 9.9225 11.9025 10.3275 11.73L11.0625 12.465C10.4025 12.645 9.7125 12.75 9 12.75C6.1575 12.75 3.6225 11.1525 2.385 8.625C2.91 7.5525 3.675 6.6675 4.5825 5.9775Z" fill="#AFADB4"/>
</g>
<defs>
<clipPath id="clip0_252_2763">
<rect width="20" height="20" fill="white"/>
</clipPath>
</defs>
</svg>
