<svg width="178" height="37" viewBox="0 0 178 37" fill="none" xmlns="http://www.w3.org/2000/svg">
<g clip-path="url(#clip0_2009_4122)">
<path d="M170.78 2.9182C170.78 2.9182 170.849 5.4097 172.931 6.53792C173.817 5.87617 174.394 4.82027 174.394 3.62695C174.394 1.62363 172.776 0 170.78 0C168.785 0 167.167 1.62363 167.167 3.62695C167.167 4.82027 167.743 5.87617 168.63 6.53792C170.712 5.4097 170.78 2.9182 170.78 2.9182Z" fill="#5B29C7"/>
<path d="M169.012 6.76947C168.922 6.71884 168.831 6.6646 168.749 6.60674C168.709 6.58143 168.669 6.55612 168.63 6.53442C168.183 6.33915 167.693 6.22705 167.178 6.22705C165.182 6.22705 163.564 7.85068 163.564 9.85401C163.564 11.8573 165.182 13.481 167.178 13.481C169.174 13.481 170.69 11.9513 170.784 10.0312C170.741 9.55025 170.485 7.80006 169.015 6.76947H169.012Z" fill="#5B29C7"/>
<path d="M174.387 6.21973C173.868 6.21973 173.378 6.33183 172.935 6.5271C172.892 6.54879 172.856 6.57772 172.816 6.59942C172.73 6.65728 172.643 6.71152 172.553 6.76214C171.083 7.79273 170.827 9.53931 170.784 10.0239C170.878 11.944 172.452 13.4736 174.39 13.4736C176.329 13.4736 178.004 11.85 178.004 9.84668C178.004 7.84336 176.386 6.21973 174.39 6.21973H174.387Z" fill="#5B29C7"/>
<path d="M169.311 6.925L169.307 6.92139L169.304 6.925H169.311Z" fill="#5B29C7"/>
<path d="M66.9509 29.1531H66.1475C65.8016 29.1531 65.5206 28.871 65.5206 28.5239V19.0207C65.5206 19.0207 65.5242 19.0099 65.5315 19.0099H67.2715C69.1953 19.0099 70.9209 17.6575 71.2271 15.7518C71.6234 13.3073 69.7429 11.1882 67.3832 11.1882H65.5315C65.5315 11.1882 65.5206 11.1846 65.5206 11.1774V9.01857C65.5206 7.08757 64.1733 5.35546 62.2747 5.04447C59.8394 4.6467 57.7283 6.53069 57.7283 8.90286V11.1774C57.7283 11.1774 57.7247 11.1882 57.7175 11.1882H55.9342C54.0104 11.1882 52.2848 12.5407 51.9749 14.4463C51.5787 16.8908 53.4556 19.0099 55.8189 19.0099H57.7138C57.7138 19.0099 57.7247 19.0135 57.7247 19.0207V31.0009C57.7247 34.4253 60.5131 37.123 63.9211 36.9964H66.9653C69.116 36.9892 70.8597 35.2353 70.8597 33.0765C70.8597 32.205 70.5751 31.4059 70.0959 30.755C69.3862 29.7859 68.2442 29.1567 66.9509 29.1567V29.1531Z" fill="#181818"/>
<path d="M156.337 11.4704C149.323 11.4704 143.62 17.1983 143.62 24.2353C143.62 31.2722 149.327 37.0001 156.337 37.0001C163.348 37.0001 169.051 31.2939 169.101 24.2714C169.051 17.2128 163.323 11.4668 156.337 11.4668V11.4704ZM161.121 24.2353C161.121 26.8823 158.974 29.0375 156.337 29.0375C153.7 29.0375 151.553 26.8823 151.553 24.2353C151.553 21.5883 153.7 19.4331 156.337 19.4331C158.974 19.4331 161.121 21.5883 161.121 24.2353Z" fill="#181818"/>
<path d="M75.0704 37.0001C72.9521 36.9676 71.2949 35.1378 71.2949 33.0116V23.512C71.2949 23.418 71.3021 23.3204 71.3057 23.2264C71.947 14.7755 78.5649 11.8537 81.973 11.4885C82.1063 11.474 82.2035 11.4704 82.3801 11.4668H86.9878C89.1061 11.4668 90.929 13.1302 90.9614 15.2565C90.9938 17.4117 89.2646 19.1691 87.1247 19.1691H82.6719C81.692 19.3535 79.2963 20.1671 78.9684 23.6712V33.1454C78.9684 35.2933 77.2176 37.0291 75.0704 36.9965V37.0001Z" fill="#181818"/>
<path d="M113.474 28.672C114 27.2762 114.292 25.7611 114.292 24.1772C114.292 17.1583 108.622 11.4702 101.629 11.4702C94.6363 11.4702 88.9658 17.1583 88.9658 24.1772C88.9658 31.1961 94.6363 36.8842 101.629 36.8842C103.61 36.8842 105.484 36.4286 107.152 35.615C108.002 36.472 109.176 37.0035 110.477 37.0035C113.067 37.0035 115.167 34.8953 115.167 32.2954C115.167 30.8381 114.508 29.5363 113.471 28.672H113.474ZM101.629 28.8854C99.0386 28.8854 96.9383 26.7772 96.9383 24.1772C96.9383 21.5772 99.0386 19.469 101.629 19.469C104.219 19.469 106.319 21.5772 106.319 24.1772C106.319 26.7772 104.219 28.8854 101.629 28.8854Z" fill="#181818"/>
<path d="M44.0988 20.7023C44.0304 20.7023 43.9655 20.7096 43.9007 20.7096V20.7023H40.2008C39.6064 20.7023 39.1237 20.2178 39.1237 19.6211C39.1237 19.0245 39.6064 18.5399 40.2008 18.5399H47.9608C49.9062 18.5399 51.4841 16.956 51.4841 15.0033C51.4841 13.0507 49.9062 11.4668 47.9608 11.4668H38.4752C38.4536 11.4668 38.432 11.4668 38.4104 11.4668C38.3851 11.4668 38.3635 11.4668 38.3419 11.4668C33.8567 11.4668 30.2217 15.1154 30.2217 19.6175C30.2217 23.4325 32.8299 26.6327 36.3569 27.5223C36.7568 27.6778 37.1891 27.7682 37.643 27.7682H42.2435C42.8379 27.7682 43.3207 28.2528 43.3207 28.8494C43.3207 29.4461 42.8379 29.9306 42.2435 29.9306H34.4835C32.5381 29.9306 30.9602 31.5145 30.9602 33.4672C30.9602 35.4199 32.5381 37.0037 34.4835 37.0037H43.9691C43.9691 37.0037 43.998 37.0037 44.0124 37.0037C44.0412 37.0037 44.07 37.0037 44.1024 37.0037C48.5876 37.0037 52.2227 33.3551 52.2227 28.853C52.2227 24.351 48.5876 20.7023 44.1024 20.7023H44.0988Z" fill="#181818"/>
<path d="M30.2367 31.9555L20.4448 8.6425C20.3692 8.46531 20.2791 8.29897 20.1782 8.13986C19.4289 6.29926 17.5015 4.99023 15.2355 4.99023C12.9695 4.99023 10.9448 6.36797 10.2387 8.28089C10.1739 8.39661 10.1126 8.51955 10.0586 8.6425L0.266777 31.9555C-0.522189 33.8359 0.504547 35.9586 2.56162 36.6999L2.69131 36.7469C4.74839 37.4846 7.05764 36.5625 7.84661 34.6821L9.56864 30.585C9.67312 30.5923 9.77759 30.5995 9.88207 30.5995H20.9384L22.6532 34.6821C23.4422 36.5625 25.7514 37.4882 27.8085 36.7469L27.9382 36.6999C29.9953 35.9622 31.022 33.8359 30.2331 31.9555H30.2367ZM12.8506 22.767L15.2499 17.0536L17.6492 22.767H12.8506Z" fill="#181818"/>
<path d="M143.026 21.7076C142.629 19.9249 141.066 18.5905 139.196 18.5905H134.167C131.998 18.5905 130.237 20.3841 130.237 22.5972C130.237 24.8102 131.995 26.6038 134.167 26.6038H135.367V27.3849C133.918 28.5312 132.07 29.1785 130.071 29.07C126.094 28.8494 122.844 25.5624 122.599 21.5124C122.318 16.8186 125.967 12.9241 130.51 12.9241C132.683 12.9241 134.65 13.8173 136.084 15.2637C137.917 16.9633 139.996 17.6359 141.934 15.7013C142.503 15.1335 142.928 14.4176 143.065 13.6184C143.263 12.4432 142.95 11.3511 142.323 10.5122L142.352 10.5049C139.283 6.91413 134.679 4.72277 129.57 5.02652C121.345 5.51831 114.821 12.5806 114.807 20.9772C114.792 29.8294 121.828 37.011 130.51 37.011C134.56 37.011 138.241 35.4416 141.023 32.8742C141.588 32.3534 142.089 31.7568 142.475 31.0842C143.008 30.1512 143.224 29.287 143.224 28.1551V22.9733C143.224 22.5321 143.152 22.1126 143.022 21.7149L143.026 21.7076Z" fill="#181818"/>
</g>
<defs>
<clipPath id="clip0_2009_4122">
<rect width="178" height="37" fill="white"/>
</clipPath>
</defs>
</svg>
