<svg width="156" height="44" viewBox="0 0 156 44" fill="none" xmlns="http://www.w3.org/2000/svg">
<g clip-path="url(#clip0_2239_9915)">
<path d="M149.562 2.59202C149.562 2.59202 149.623 4.80618 151.48 5.80835C152.437 5.09644 152.99 3.8702 152.713 2.53499C152.455 1.28533 151.44 0.293337 150.186 0.0580705C148.131 -0.326911 146.339 1.23848 146.339 3.22246C146.339 4.28268 146.853 5.22069 147.644 5.80835C149.5 4.80618 149.561 2.59202 149.561 2.59202H149.562Z" fill="#5B29C7"/>
<path d="M147.985 6.01223C147.904 5.9664 147.826 5.91853 147.749 5.86659C147.713 5.8452 147.68 5.82177 147.641 5.8014C147.641 5.8014 147.642 5.8014 147.643 5.80038C147.053 5.54068 146.37 5.44901 145.655 5.60076C144.396 5.86862 143.398 6.8983 143.176 8.16629C142.819 10.2032 144.377 11.9723 146.348 11.9723C148.074 11.9723 149.479 10.6147 149.562 8.90875C149.523 8.47998 149.295 6.92783 147.985 6.01223Z" fill="#5B29C7"/>
<path d="M153.47 5.60076C152.755 5.44901 152.073 5.54068 151.482 5.80038C151.482 5.80038 151.483 5.80038 151.484 5.8014C151.447 5.82177 151.413 5.8452 151.376 5.86659C151.3 5.91853 151.222 5.9664 151.141 6.01223C149.829 6.92783 149.601 8.47998 149.563 8.90875C149.647 10.6137 151.052 11.9723 152.778 11.9723C154.748 11.9723 156.307 10.2032 155.949 8.16629C155.727 6.8983 154.729 5.86862 153.47 5.60076Z" fill="#5B29C7"/>
<path d="M99.9223 25.1052C100.531 23.495 100.786 21.84 100.585 19.9833C100.077 15.275 96.7772 11.364 92.1778 10.2345C84.2388 8.2852 77.1931 14.6883 78.018 22.4674C78.5721 27.6881 82.7427 31.8964 87.9583 32.4963C90.2285 32.757 92.7217 32.209 94.4062 31.3036C95.2495 32.152 96.3311 32.6429 97.6226 32.5268C99.4151 32.3659 101.067 30.8698 101.377 29.0976C101.657 27.4966 101.028 26.0229 99.9223 25.1052ZM89.8353 25.4189C87.061 25.7682 84.7277 23.4349 85.0771 20.6606C85.3154 18.7703 86.8421 17.2437 88.7323 17.0053C91.5066 16.656 93.84 18.9893 93.4906 21.7636C93.2523 23.6539 91.7256 25.1806 89.8353 25.4189Z" fill="#181818"/>
<path d="M21.9701 25.1052C22.5792 23.495 22.8338 21.84 22.6331 19.9833C22.1249 15.275 18.8251 11.364 14.2257 10.2345C6.2867 8.2852 -0.759069 14.6883 0.0658914 22.4674C0.619939 27.6881 4.79057 31.8964 10.0062 32.4963C12.2763 32.757 14.7695 32.209 16.4541 31.3036C17.2974 32.152 18.379 32.6429 19.6704 32.5268C21.4629 32.3659 23.1149 30.8698 23.4245 29.0976C23.7046 27.4966 23.0762 26.0229 21.9701 25.1052ZM11.8822 25.4189C9.10786 25.7682 6.77455 23.4349 7.12389 20.6606C7.36221 18.7703 8.88889 17.2437 10.7792 17.0053C13.5535 16.656 15.8868 18.9893 15.5375 21.7636C15.2991 23.6539 13.7725 25.1806 11.8822 25.4189Z" fill="#181818"/>
<path d="M147.914 5.88485C147.914 5.88485 147.912 5.88383 147.911 5.88281C147.911 5.88281 147.91 5.88383 147.909 5.88485H147.915H147.914Z" fill="#5B29C7"/>
<path d="M36.0875 18.0972C36.0284 18.0972 35.9693 18.1023 35.9102 18.1043V18.0972H32.641C32.2214 18.0972 31.8211 17.8446 31.6968 17.4433C31.4921 16.7834 31.98 16.1774 32.6094 16.1774H39.538C41.2674 16.1774 42.6688 14.776 42.6688 13.0466V13.0273C42.6688 11.2979 41.2674 9.89648 39.538 9.89648H31.0695C31.0501 9.89648 31.0318 9.89852 31.0124 9.89954C30.991 9.89954 30.9707 9.89648 30.9493 9.89648C26.9508 9.89648 23.709 13.1383 23.709 17.1368C23.709 20.5242 26.0362 23.3678 29.1782 24.1581C29.5336 24.2976 29.9196 24.3771 30.325 24.3771H34.405C34.8185 24.3771 35.2095 24.6266 35.3358 25.0208C35.5487 25.6848 35.0588 26.2959 34.4263 26.2959H27.5873C26.1136 26.2959 24.7692 27.2746 24.4484 28.7127C23.9911 30.7619 25.5371 32.5768 27.5079 32.5768H35.9673C35.9805 32.5768 35.9938 32.5747 36.007 32.5747C36.0335 32.5747 36.06 32.5768 36.0864 32.5768C40.085 32.5768 43.3267 29.335 43.3267 25.3365C43.3267 21.338 40.085 18.0962 36.0864 18.0962L36.0875 18.0972Z" fill="#181818"/>
<path d="M57.3107 25.6422H56.2199C55.9103 25.6422 55.6598 25.3917 55.6598 25.0821H55.6587V17.2735C55.6587 16.919 55.9459 16.6308 56.3014 16.6308H57.2272C58.9392 16.6308 60.468 15.4321 60.747 13.7424C61.1055 11.568 59.4291 9.67873 57.3199 9.67873H55.6598V3.56689C55.6598 1.85484 54.461 0.325103 52.7714 0.047061C50.5969 -0.31144 48.7077 1.36496 48.7077 3.47421V9.67873H47.1016C45.3895 9.67873 43.8598 10.8775 43.5817 12.5661C43.2232 14.7405 44.8996 16.6298 47.0089 16.6298H48.0396C48.4083 16.6298 48.7077 16.9292 48.7077 17.2979V27.2901C48.7077 30.3058 51.2111 32.7185 54.2237 32.6075H54.2339H57.3209C59.2407 32.6014 60.7949 31.0442 60.7949 29.1234C60.7949 28.3503 60.5403 27.6384 60.1145 27.0609C59.48 26.2003 58.4626 25.6402 57.3117 25.6402L57.3107 25.6422Z" fill="#181818"/>
<path d="M75.6607 9.92285H72.4107C66.4782 9.92285 61.6689 14.7321 61.6689 20.6646V29.0599C61.6689 30.9492 63.1467 32.5736 65.035 32.6032C66.9497 32.6327 68.511 31.0897 68.511 29.1821V20.5862C68.511 20.5811 68.511 20.5771 68.511 20.572V20.5048C68.511 20.1962 68.5528 19.8977 68.6231 19.6116C68.6302 19.582 68.6373 19.5535 68.6455 19.525C68.675 19.417 68.7086 19.3121 68.7473 19.2082C68.7605 19.1726 68.7728 19.1359 68.787 19.1003C69.3421 17.7335 70.6814 16.768 72.2478 16.768H72.2834C72.2977 16.768 72.315 16.7659 72.3293 16.7659C72.3293 16.7659 72.7234 16.7659 73.1206 16.7659H75.7819C77.6895 16.7659 79.2325 15.2046 79.2029 13.2899C79.1734 11.4007 77.5479 9.92285 75.6597 9.92285H75.6607Z" fill="#181818"/>
<path d="M122.057 10.0473C120.488 9.3537 118.818 9.8721 117.851 11.1065C116.331 10.3437 114.623 9.9434 112.874 9.9434C106.62 9.9434 101.534 15.0123 101.534 21.2423C101.534 27.4723 106.621 32.5412 112.874 32.5412C114.317 32.5412 115.758 32.257 117.097 31.7132V31.8059C117.097 34.182 115.163 36.3381 112.79 36.4542C111.328 36.5255 109.976 35.9592 109.111 34.9214C108.487 34.184 107.616 33.746 106.66 33.686C105.728 33.6279 104.836 33.9345 104.155 34.5547C103.443 35.1373 103.008 35.9724 102.931 36.9084C102.853 37.8413 103.14 38.763 103.752 39.5198C105.945 42.071 109.149 43.5346 112.544 43.5346C118.933 43.5346 124.131 38.318 124.131 31.9067V13.3542C124.131 11.9457 123.346 10.6166 122.056 10.0473H122.057ZM113.405 25.4313C110.629 25.7816 108.294 23.4463 108.644 20.6699C108.882 18.7776 110.41 17.2499 112.302 17.0116C115.079 16.6612 117.414 18.9966 117.064 21.7739C116.825 23.6663 115.298 25.194 113.405 25.4323V25.4313Z" fill="#181818"/>
<path d="M137.084 9.9047C130.24 9.47185 124.597 15.1152 125.03 21.9583C125.387 27.6026 129.967 32.1817 135.611 32.5381C142.455 32.97 148.096 27.3287 147.665 20.4846C147.308 14.8402 142.728 10.2612 137.084 9.9047ZM136.898 25.4313C134.122 25.7816 131.787 23.4463 132.137 20.6699C132.375 18.7776 133.903 17.2499 135.795 17.0116C138.572 16.6612 140.907 18.9966 140.557 21.7739C140.318 23.6663 138.791 25.194 136.898 25.4323V25.4313Z" fill="#181818"/>
</g>
<defs>
<clipPath id="clip0_2239_9915">
<rect width="156" height="43.5355" fill="white"/>
</clipPath>
</defs>
</svg>
