<svg width="156" height="44" viewBox="0 0 156 44" fill="none" xmlns="http://www.w3.org/2000/svg">
<g clip-path="url(#clip0_2038_3621)">
<path d="M149.519 2.60418C149.519 2.60418 149.58 4.82758 151.45 5.8344C152.245 5.24386 152.763 4.30158 152.763 3.23667C152.763 1.44892 151.311 0 149.519 0C147.727 0 146.275 1.44892 146.275 3.23667C146.275 4.30158 146.793 5.24386 147.588 5.8344C149.458 4.82758 149.519 2.60418 149.519 2.60418Z" fill="#5B29C7"/>
<path d="M147.932 6.04069C147.851 5.99551 147.77 5.94711 147.696 5.89547C147.66 5.87289 147.624 5.8503 147.589 5.83093C147.188 5.65668 146.748 5.55664 146.286 5.55664C144.494 5.55664 143.042 7.00556 143.042 8.79331C143.042 10.5811 144.494 12.03 146.286 12.03C148.077 12.03 149.439 10.665 149.523 8.95143C149.484 8.52224 149.254 6.96038 147.935 6.04069H147.932Z" fill="#5B29C7"/>
<path d="M152.756 5.55029C152.291 5.55029 151.851 5.65033 151.453 5.82459C151.414 5.84395 151.382 5.86976 151.346 5.88913C151.269 5.94076 151.191 5.98916 151.11 6.03434C149.791 6.95403 149.561 8.51267 149.522 8.94509C149.607 10.6586 151.02 12.0236 152.76 12.0236C154.499 12.0236 156.003 10.5747 156.003 8.78696C156.003 6.99921 154.551 5.55029 152.76 5.55029H152.756Z" fill="#5B29C7"/>
<path d="M148.201 6.18071L148.196 6.17627V6.18071H148.201Z" fill="#5B29C7"/>
<path d="M120.718 10.0489C119.628 10.0489 118.613 10.562 117.937 11.4236C116.407 10.6588 114.687 10.2555 112.927 10.2555C106.631 10.2555 101.512 15.3476 101.512 21.6048C101.512 27.8619 106.634 32.9541 112.927 32.9541C114.379 32.9541 115.831 32.6701 117.18 32.1215V32.3152C117.18 34.8387 115.123 36.8878 112.598 36.8878C111.223 36.8878 109.962 36.3263 109.14 35.3421C108.513 34.6031 107.637 34.161 106.673 34.0997C105.735 34.0416 104.836 34.3482 104.151 34.9742C103.433 35.5583 102.996 36.3973 102.918 37.3396C102.841 38.2754 103.129 39.2016 103.746 39.9631C105.955 42.5254 109.179 43.9969 112.598 43.9969C119.03 43.9969 124.262 38.7562 124.262 32.3152V13.576C124.262 11.6269 122.674 10.0425 120.721 10.0425L120.718 10.0489ZM117.18 21.6048C117.18 23.9669 115.272 25.8902 112.927 25.8902C110.583 25.8902 108.633 23.9669 108.633 21.6048C108.633 19.2426 110.56 17.3193 112.927 17.3193C115.295 17.3193 117.18 19.2426 117.18 21.6048Z" fill="#181818"/>
<path d="M136.554 10.2361C130.258 10.2361 125.139 15.3477 125.139 21.6274C125.139 27.9071 130.261 33.0187 136.554 33.0187C142.848 33.0187 147.967 27.9265 148.012 21.6597C147.967 15.3606 142.825 10.2329 136.554 10.2329V10.2361ZM140.849 21.6274C140.849 23.9896 138.922 25.9129 136.554 25.9129C134.187 25.9129 132.26 23.9896 132.26 21.6274C132.26 19.2653 134.187 17.342 136.554 17.342C138.922 17.342 140.849 19.2653 140.849 21.6274Z" fill="#181818"/>
<path d="M36.207 18.4746C36.1455 18.4746 36.0873 18.4811 36.0291 18.4811V18.4746H32.7079C32.1743 18.4746 31.741 18.0422 31.741 17.5098C31.741 16.9773 32.1743 16.5449 32.7079 16.5449H39.6737C41.42 16.5449 42.8365 15.1315 42.8365 13.3889C42.8365 11.6463 41.42 10.2329 39.6737 10.2329H31.1589C31.1395 10.2329 31.1201 10.2329 31.1006 10.2329C31.078 10.2329 31.0586 10.2329 31.0392 10.2329C27.013 10.2329 23.75 13.4889 23.75 17.5065C23.75 20.911 26.0913 23.7669 29.2573 24.5607C29.6163 24.6995 30.0044 24.7802 30.4118 24.7802H34.5415C35.0751 24.7802 35.5085 25.2126 35.5085 25.745C35.5085 26.2775 35.0751 26.7099 34.5415 26.7099H27.5757C25.8294 26.7099 24.4129 28.1233 24.4129 29.8659C24.4129 31.6085 25.8294 33.0219 27.5757 33.0219H36.0906C36.0906 33.0219 36.1164 33.0219 36.1294 33.0219C36.1552 33.0219 36.1811 33.0219 36.2102 33.0219C40.2364 33.0219 43.4994 29.7659 43.4994 25.7483C43.4994 21.7307 40.2364 18.4746 36.2102 18.4746H36.207Z" fill="#181818"/>
<path d="M64.9428 33.0187C63.0413 32.9896 61.5537 31.3568 61.5537 29.4593V20.982C61.5537 20.8981 61.5602 20.811 61.5634 20.7271C62.139 13.1856 68.0797 10.5782 71.139 10.2523C71.2586 10.2394 71.346 10.2361 71.5044 10.2329H75.6406C77.5421 10.2329 79.1785 11.7173 79.2076 13.6148C79.2367 15.5381 77.6844 17.1064 75.7635 17.1064H71.7664C70.8867 17.271 68.7362 17.997 68.4419 21.124V29.5787C68.4419 31.4955 66.8702 33.0445 64.9428 33.0155V33.0187Z" fill="#181818"/>
<path d="M57.1814 26.016H56.4602C56.1498 26.016 55.8975 25.7643 55.8975 25.4545V16.974C55.8975 16.974 55.9008 16.9643 55.9072 16.9643H57.4692C59.1961 16.9643 60.7451 15.7574 61.02 14.0568C61.3757 11.8754 59.6876 9.98436 57.5694 9.98436H55.9072C55.9072 9.98436 55.8975 9.98113 55.8975 9.97468V3.84985C55.8975 2.12664 54.688 0.580909 52.9838 0.303388C50.7977 -0.0515807 48.9026 1.62968 48.9026 3.74659V9.97145C48.9026 9.97145 48.8994 9.98113 48.8929 9.98113H47.2921C45.5652 9.98113 44.0162 11.188 43.7381 12.8886C43.3823 15.0701 45.0672 16.9611 47.1886 16.9611H48.8897C48.8897 16.9611 48.8994 16.9643 48.8994 16.9708V27.6618C48.8994 30.7178 51.4024 33.1251 54.4617 33.0122H57.1943C59.1249 33.0057 60.6902 31.4406 60.6902 29.5141C60.6902 28.7364 60.4347 28.0232 60.0046 27.4424C59.3675 26.5775 58.3423 26.016 57.1814 26.016Z" fill="#181818"/>
<path d="M22.0002 25.5866C22.4724 24.341 22.7343 22.9889 22.7343 21.5755C22.7343 15.3119 17.6441 10.2358 11.3672 10.2358C5.09016 10.2358 0 15.3119 0 21.5755C0 27.8391 5.09016 32.9151 11.3672 32.9151C13.1458 32.9151 14.8274 32.5085 16.3247 31.7824C17.0879 32.5472 18.1422 33.0216 19.3096 33.0216C21.6348 33.0216 23.5201 31.1403 23.5201 28.8201C23.5201 27.5196 22.9283 26.3579 21.997 25.5866H22.0002ZM11.3672 25.777C9.04198 25.777 7.15662 23.8957 7.15662 21.5755C7.15662 19.2553 9.04198 17.3739 11.3672 17.3739C13.6923 17.3739 15.5777 19.2553 15.5777 21.5755C15.5777 23.8957 13.6923 25.777 11.3672 25.777Z" fill="#181818"/>
<path d="M99.8918 25.5866C100.364 24.341 100.626 22.9889 100.626 21.5755C100.626 15.3119 95.5358 10.2358 89.2588 10.2358C82.9818 10.2358 77.8916 15.3119 77.8916 21.5755C77.8916 27.8391 82.9818 32.9151 89.2588 32.9151C91.0374 32.9151 92.719 32.5085 94.2163 31.7824C94.9795 32.5472 96.0338 33.0216 97.2012 33.0216C99.5264 33.0216 101.412 31.1403 101.412 28.8201C101.412 27.5196 100.82 26.3579 99.8886 25.5866H99.8918ZM89.2588 25.777C86.9336 25.777 85.0482 23.8957 85.0482 21.5755C85.0482 19.2553 86.9336 17.3739 89.2588 17.3739C91.5839 17.3739 93.4693 19.2553 93.4693 21.5755C93.4693 23.8957 91.5839 25.777 89.2588 25.777Z" fill="#181818"/>
</g>
<defs>
<clipPath id="clip0_2038_3621">
<rect width="156" height="44" fill="white"/>
</clipPath>
</defs>
</svg>
