<svg width="85" height="112" viewBox="0 0 85 112" fill="none" xmlns="http://www.w3.org/2000/svg">
<path d="M5.07 98.52H7.51V99.59H5.07V98.52ZM2.55 96.34H3.63V97.68C3.63 100.01 2.84 102.16 1.1 103.03L0.27 101.96C1.85 101.23 2.55 99.44 2.55 97.68V96.34ZM2.83 96.34H3.89V97.68C3.89 99.44 4.56 101.13 6.09 101.81L5.3 102.87C3.56 102.03 2.83 99.99 2.83 97.68V96.34ZM6.85 95.62H8.17V104.91H6.85V95.62ZM13.1092 100.04H14.4392V101.33H13.1092V100.04ZM13.7892 95.72C15.8992 95.72 17.1392 96.27 17.1392 97.29C17.1392 98.31 15.8992 98.87 13.7892 98.87C11.6692 98.87 10.4392 98.31 10.4392 97.29C10.4392 96.27 11.6692 95.72 13.7892 95.72ZM13.7892 96.69C12.4492 96.69 11.8192 96.88 11.8192 97.29C11.8192 97.72 12.4492 97.9 13.7892 97.9C15.1292 97.9 15.7592 97.72 15.7592 97.29C15.7592 96.88 15.1292 96.69 13.7892 96.69ZM9.59922 99.27H17.9692V100.32H9.59922V99.27ZM10.5592 100.92H16.9592V103.3H11.8792V104.12H10.5692V102.38H15.6492V101.91H10.5592V100.92ZM10.5692 103.83H17.1992V104.83H10.5692V103.83ZM19.1884 96.55H23.1784V97.6H19.1884V96.55ZM20.3784 99.2H21.6884V102.34H20.3784V99.2ZM22.6484 96.55H23.9584V97.3C23.9584 98.2 23.9584 99.32 23.7084 100.86L22.4084 100.74C22.6484 99.26 22.6484 98.19 22.6484 97.3V96.55ZM24.7484 95.63H26.0784V104.89H24.7484V95.63ZM25.6884 99.35H27.3184V100.45H25.6884V99.35ZM18.8384 103.02L18.7184 101.95C20.3484 101.95 22.5084 101.92 24.3284 101.69L24.3984 102.66C22.5284 102.98 20.4484 103.02 18.8384 103.02ZM27.9977 96.44H33.4477V97.49H27.9977V96.44ZM30.7277 97.78C32.0577 97.78 32.9977 98.47 32.9977 99.49C32.9977 100.51 32.0577 101.19 30.7277 101.19C29.3877 101.19 28.4477 100.51 28.4477 99.49C28.4477 98.47 29.3877 97.78 30.7277 97.78ZM30.7277 98.78C30.1277 98.78 29.7277 99.02 29.7277 99.49C29.7277 99.95 30.1277 100.19 30.7277 100.19C31.3177 100.19 31.7277 99.95 31.7277 99.49C31.7277 99.02 31.3177 98.78 30.7277 98.78ZM33.9577 95.63H35.2877V101.44H33.9577V95.63ZM34.9177 98.02H36.5177V99.1H34.9177V98.02ZM29.1077 101.82H35.2877V104.89H33.9577V102.88H29.1077V101.82ZM30.0577 95.58H31.3877V97.04H30.0577V95.58ZM43.5769 95.63H44.9169V104.89H43.5769V95.63ZM40.8469 96.59H42.1669C42.1669 99.42 41.2069 101.74 37.9169 103.33L37.2269 102.27C39.8869 100.99 40.8469 99.31 40.8469 96.83V96.59ZM37.7169 96.59H41.4769V97.64H37.7169V96.59ZM49.9061 95.68H51.0261V95.85C51.0261 97.4 49.6361 98.62 47.2461 98.88L46.8061 97.88C48.8961 97.67 49.9061 96.75 49.9061 95.85V95.68ZM50.1361 95.68H51.2661V95.85C51.2661 96.75 52.2761 97.67 54.3561 97.88L53.9161 98.88C51.5261 98.62 50.1361 97.4 50.1361 95.85V95.68ZM49.9061 100.07H51.2361V101.36H49.9061V100.07ZM46.3961 99.26H54.7661V100.3H46.3961V99.26ZM47.3561 100.9H53.7561V103.3H48.6761V104.1H47.3661V102.38H52.4461V101.89H47.3561V100.9ZM47.3661 103.83H53.9961V104.83H47.3661V103.83ZM62.2853 95.63H63.5453V104.89H62.2853V95.63ZM61.0453 99.19H62.5853V100.26H61.0453V99.19ZM60.2153 95.79H61.4453V104.45H60.2153V95.79ZM55.8553 101.71H56.5053C57.6453 101.71 58.5953 101.67 59.6953 101.47L59.7953 102.55C58.6753 102.77 57.6953 102.8 56.5053 102.8H55.8553V101.71ZM55.8553 96.7H59.2753V97.77H57.1753V102.23H55.8553V96.7ZM64.7945 96.44H70.2445V97.49H64.7945V96.44ZM67.5245 97.78C68.8545 97.78 69.7945 98.47 69.7945 99.49C69.7945 100.51 68.8545 101.19 67.5245 101.19C66.1845 101.19 65.2445 100.51 65.2445 99.49C65.2445 98.47 66.1845 97.78 67.5245 97.78ZM67.5245 98.78C66.9245 98.78 66.5245 99.02 66.5245 99.49C66.5245 99.95 66.9245 100.19 67.5245 100.19C68.1145 100.19 68.5245 99.95 68.5245 99.49C68.5245 99.02 68.1145 98.78 67.5245 98.78ZM70.7545 95.63H72.0845V101.44H70.7545V95.63ZM71.7145 98.02H73.3145V99.1H71.7145V98.02ZM65.9045 101.82H72.0845V104.89H70.7545V102.88H65.9045V101.82ZM66.8545 95.58H68.1845V97.04H66.8545V95.58ZM74.8138 96.41H80.6738V97.48H74.8138V96.41ZM74.0038 102.7H82.3738V103.78H74.0038V102.7ZM75.7538 99.78H77.0738V103.04H75.7538V99.78ZM80.2838 96.41H81.6238V97.32C81.6238 98.44 81.6238 99.72 81.2938 101.6L79.9738 101.47C80.2838 99.71 80.2838 98.41 80.2838 97.32V96.41ZM78.0438 99.78H79.3538V103.04H78.0438V99.78Z" fill="black"/>
<path d="M1.02995 111.046C0.699841 111.046 0.37633 110.921 0.138648 110.693L0.419244 110.356C0.590903 110.518 0.825284 110.624 1.03986 110.624C1.29405 110.624 1.42609 110.515 1.42609 110.346C1.42609 110.165 1.27754 110.105 1.05966 110.013L0.732852 109.874C0.488568 109.775 0.237682 109.574 0.237682 109.221C0.237682 108.821 0.590903 108.514 1.08277 108.514C1.36667 108.514 1.65057 108.626 1.84864 108.828L1.60435 109.135C1.4459 109.006 1.28414 108.933 1.08277 108.933C0.868199 108.933 0.732852 109.029 0.732852 109.188C0.732852 109.363 0.907812 109.429 1.11578 109.511L1.43599 109.643C1.7298 109.765 1.92456 109.957 1.92456 110.307C1.92456 110.706 1.59115 111.046 1.02995 111.046ZM2.36039 111V108.557H3.85911V108.963H2.84896V109.528H3.70395V109.94H2.84896V110.591H3.89542V111H2.36039ZM5.3619 111.046C4.71157 111.046 4.26922 110.564 4.26922 109.769C4.26922 108.973 4.71157 108.514 5.3619 108.514C6.00892 108.514 6.45127 108.976 6.45127 109.769C6.45127 110.564 6.00892 111.046 5.3619 111.046ZM5.3619 110.624C5.72502 110.624 5.9561 110.29 5.9561 109.769C5.9561 109.247 5.72502 108.933 5.3619 108.933C4.99547 108.933 4.76769 109.247 4.76769 109.769C4.76769 110.29 4.99547 110.624 5.3619 110.624ZM7.86921 111.046C7.27171 111.046 6.91849 110.713 6.91849 109.904V108.557H7.40375V109.947C7.40375 110.452 7.58201 110.624 7.86921 110.624C8.15641 110.624 8.34458 110.452 8.34458 109.947V108.557H8.81334V109.904C8.81334 110.713 8.46672 111.046 7.86921 111.046ZM9.40109 111V108.557H9.88966V110.591H10.8833V111H9.40109ZM12.995 111.046C12.3975 111.046 12.0443 110.713 12.0443 109.904V108.557H12.5295V109.947C12.5295 110.452 12.7078 110.624 12.995 110.624C13.2822 110.624 13.4704 110.452 13.4704 109.947V108.557H13.9391V109.904C13.9391 110.713 13.5925 111.046 12.995 111.046ZM14.5269 111V108.557H15.0221L15.7318 109.861L15.9794 110.389H15.9959C15.9695 110.135 15.9299 109.808 15.9299 109.531V108.557H16.3953V111H15.8969L15.1904 109.693L14.9428 109.171H14.9263C14.9494 109.432 14.989 109.739 14.989 110.023V111H14.5269ZM16.9995 111V108.557H17.4881V111H16.9995ZM18.5183 111L17.7689 108.557H18.2839L18.6041 109.746C18.68 110.02 18.7362 110.261 18.8121 110.538H18.8286C18.9078 110.261 18.9606 110.02 19.0333 109.746L19.3502 108.557H19.8486L19.0993 111H18.5183ZM20.133 111V108.557H21.6317V108.963H20.6216V109.528H21.4766V109.94H20.6216V110.591H21.668V111H20.133ZM22.164 111V108.557H23.0124C23.5241 108.557 23.9301 108.735 23.9301 109.297C23.9301 109.841 23.5241 110.079 23.0124 110.079H22.6526V111H22.164ZM22.6526 109.693H22.9662C23.2831 109.693 23.4547 109.557 23.4547 109.297C23.4547 109.036 23.2831 108.947 22.9662 108.947H22.6526V109.693ZM23.491 111L22.9232 109.954L23.2633 109.647L24.0357 111H23.491ZM25.076 111.046C24.7459 111.046 24.4224 110.921 24.1847 110.693L24.4653 110.356C24.637 110.518 24.8714 110.624 25.0859 110.624C25.3401 110.624 25.4722 110.515 25.4722 110.346C25.4722 110.165 25.3236 110.105 25.1057 110.013L24.7789 109.874C24.5346 109.775 24.2838 109.574 24.2838 109.221C24.2838 108.821 24.637 108.514 25.1288 108.514C25.4127 108.514 25.6966 108.626 25.8947 108.828L25.6504 109.135C25.492 109.006 25.3302 108.933 25.1288 108.933C24.9143 108.933 24.7789 109.029 24.7789 109.188C24.7789 109.363 24.9539 109.429 25.1619 109.511L25.4821 109.643C25.7759 109.765 25.9706 109.957 25.9706 110.307C25.9706 110.706 25.6372 111.046 25.076 111.046ZM26.4065 111V108.557H26.895V111H26.4065ZM27.9814 111V108.963H27.2914V108.557H29.1599V108.963H28.4699V111H27.9814ZM29.8914 111V110.109L29.1552 108.557H29.6735L29.9178 109.155C29.9904 109.336 30.0564 109.508 30.129 109.696H30.1422C30.2182 109.508 30.2908 109.336 30.3634 109.155L30.6044 108.557H31.1128L30.3766 110.109V111H29.8914ZM33.1121 111.046C32.4617 111.046 32.0194 110.564 32.0194 109.769C32.0194 108.973 32.4617 108.514 33.1121 108.514C33.7591 108.514 34.2014 108.976 34.2014 109.769C34.2014 110.564 33.7591 111.046 33.1121 111.046ZM33.1121 110.624C33.4752 110.624 33.7063 110.29 33.7063 109.769C33.7063 109.247 33.4752 108.933 33.1121 108.933C32.7456 108.933 32.5179 109.247 32.5179 109.769C32.5179 110.29 32.7456 110.624 33.1121 110.624ZM34.6819 111V108.557H36.1872V108.963H35.1704V109.604H36.0386V110.01H35.1704V111H34.6819ZM38.0904 111.046C37.7603 111.046 37.4367 110.921 37.1991 110.693L37.4797 110.356C37.6513 110.518 37.8857 110.624 38.1003 110.624C38.3545 110.624 38.4865 110.515 38.4865 110.346C38.4865 110.165 38.338 110.105 38.1201 110.013L37.7933 109.874C37.549 109.775 37.2981 109.574 37.2981 109.221C37.2981 108.821 37.6513 108.514 38.1432 108.514C38.4271 108.514 38.711 108.626 38.909 108.828L38.6648 109.135C38.5063 109.006 38.3446 108.933 38.1432 108.933C37.9286 108.933 37.7933 109.029 37.7933 109.188C37.7933 109.363 37.9682 109.429 38.1762 109.511L38.4964 109.643C38.7902 109.765 38.985 109.957 38.985 110.307C38.985 110.706 38.6516 111.046 38.0904 111.046ZM40.4144 111.046C39.7971 111.046 39.2987 110.604 39.2987 109.788C39.2987 108.983 39.8136 108.514 40.4343 108.514C40.7446 108.514 40.9921 108.659 41.1506 108.825L40.8931 109.138C40.7677 109.016 40.629 108.933 40.4409 108.933C40.0744 108.933 39.7971 109.25 39.7971 109.772C39.7971 110.307 40.0447 110.624 40.4343 110.624C40.6422 110.624 40.8073 110.525 40.936 110.383L41.1935 110.69C40.9921 110.924 40.7314 111.046 40.4144 111.046ZM41.5872 111V108.557H42.0757V111H41.5872ZM42.6768 111V108.557H44.1755V108.963H43.1654V109.528H44.0204V109.94H43.1654V110.591H44.2118V111H42.6768ZM44.7078 111V108.557H45.2029L45.9127 109.861L46.1603 110.389H46.1768C46.1504 110.135 46.1108 109.808 46.1108 109.531V108.557H46.5762V111H46.0778L45.3713 109.693L45.1237 109.171H45.1072C45.1303 109.432 45.1699 109.739 45.1699 110.023V111H44.7078ZM48.1741 111.046C47.5567 111.046 47.0583 110.604 47.0583 109.788C47.0583 108.983 47.5732 108.514 48.1939 108.514C48.5042 108.514 48.7517 108.659 48.9102 108.825L48.6527 109.138C48.5273 109.016 48.3886 108.933 48.2005 108.933C47.834 108.933 47.5567 109.25 47.5567 109.772C47.5567 110.307 47.8043 110.624 48.1939 110.624C48.4018 110.624 48.5669 110.525 48.6956 110.383L48.9531 110.69C48.7517 110.924 48.491 111.046 48.1741 111.046ZM49.3468 111V108.557H50.8455V108.963H49.8353V109.528H50.6903V109.94H49.8353V110.591H50.8818V111H49.3468ZM51.8121 111L52.5944 108.557H53.1688L53.9512 111H53.4395L53.0896 109.729C53.017 109.475 52.9476 109.191 52.8783 108.93H52.8651C52.7991 109.194 52.7298 109.475 52.6571 109.729L52.3072 111H51.8121ZM52.2973 110.373V109.996H53.4593V110.373H52.2973ZM54.2405 111V108.557H54.7356L55.4454 109.861L55.693 110.389H55.7095C55.6831 110.135 55.6434 109.808 55.6434 109.531V108.557H56.1089V111H55.6104L54.904 109.693L54.6564 109.171H54.6399C54.663 109.432 54.7026 109.739 54.7026 110.023V111H54.2405ZM56.7131 111V108.557H57.3832C58.1293 108.557 58.5881 108.943 58.5881 109.769C58.5881 110.591 58.1293 111 57.4096 111H56.7131ZM57.2016 110.607H57.3502C57.8091 110.607 58.0897 110.363 58.0897 109.769C58.0897 109.174 57.8091 108.947 57.3502 108.947H57.2016V110.607ZM60.3028 111V108.963H59.6129V108.557H61.4813V108.963H60.7914V111H60.3028ZM61.8808 111V108.557H63.3795V108.963H62.3693V109.528H63.2243V109.94H62.3693V110.591H63.4158V111H61.8808ZM64.9054 111.046C64.2881 111.046 63.7896 110.604 63.7896 109.788C63.7896 108.983 64.3046 108.514 64.9252 108.514C65.2355 108.514 65.4831 108.659 65.6415 108.825L65.3841 109.138C65.2586 109.016 65.12 108.933 64.9318 108.933C64.5654 108.933 64.2881 109.25 64.2881 109.772C64.2881 110.307 64.5357 110.624 64.9252 110.624C65.1332 110.624 65.2982 110.525 65.427 110.383L65.6845 110.69C65.4831 110.924 65.2223 111.046 64.9054 111.046ZM66.0781 111V108.557H66.5667V109.521H67.491V108.557H67.9763V111H67.491V109.944H66.5667V111H66.0781ZM68.5765 111V108.557H69.0717L69.7815 109.861L70.029 110.389H70.0455C70.0191 110.135 69.9795 109.808 69.9795 109.531V108.557H70.445V111H69.9465L69.2401 109.693L68.9925 109.171H68.976C68.9991 109.432 69.0387 109.739 69.0387 110.023V111H68.5765ZM72.0197 111.046C71.3694 111.046 70.927 110.564 70.927 109.769C70.927 108.973 71.3694 108.514 72.0197 108.514C72.6667 108.514 73.1091 108.976 73.1091 109.769C73.1091 110.564 72.6667 111.046 72.0197 111.046ZM72.0197 110.624C72.3828 110.624 72.6139 110.29 72.6139 109.769C72.6139 109.247 72.3828 108.933 72.0197 108.933C71.6533 108.933 71.4255 109.247 71.4255 109.769C71.4255 110.29 71.6533 110.624 72.0197 110.624ZM73.5895 111V108.557H74.0781V110.591H75.0717V111H73.5895ZM76.3267 111.046C75.6763 111.046 75.234 110.564 75.234 109.769C75.234 108.973 75.6763 108.514 76.3267 108.514C76.9737 108.514 77.416 108.976 77.416 109.769C77.416 110.564 76.9737 111.046 76.3267 111.046ZM76.3267 110.624C76.6898 110.624 76.9209 110.29 76.9209 109.769C76.9209 109.247 76.6898 108.933 76.3267 108.933C75.9602 108.933 75.7325 109.247 75.7325 109.769C75.7325 110.29 75.9602 110.624 76.3267 110.624ZM78.9462 111.046C78.2827 111.046 77.7743 110.604 77.7743 109.788C77.7743 108.983 78.2959 108.514 78.9462 108.514C79.2961 108.514 79.5404 108.666 79.6989 108.825L79.4414 109.138C79.3192 109.023 79.1806 108.933 78.9627 108.933C78.5534 108.933 78.2728 109.25 78.2728 109.772C78.2728 110.307 78.5171 110.624 78.9957 110.624C79.1146 110.624 79.2334 110.591 79.3027 110.535V110.053H78.867V109.653H79.7385V110.752C79.5734 110.917 79.2829 111.046 78.9462 111.046ZM80.6753 111V110.109L79.9392 108.557H80.4575L80.7017 109.155C80.7744 109.336 80.8404 109.508 80.913 109.696H80.9262C81.0021 109.508 81.0748 109.336 81.1474 109.155L81.3884 108.557H81.8968L81.1606 110.109V111H80.6753Z" fill="black"/>
<path d="M32.8597 67.2851H32.0525V63.7873C32.0525 63.6592 32.0525 63.5388 32.0525 63.426C32.0577 63.3133 32.0628 63.2056 32.0679 63.1031C32.073 63.0006 32.0782 62.9007 32.0833 62.8033C32.0167 62.87 31.9475 62.9366 31.8757 63.0032C31.804 63.0647 31.722 63.1339 31.6297 63.2108L31.0301 63.6951L30.615 63.1723L32.1832 61.9424H32.8597V67.2851ZM40.3576 64.6329C40.3576 65.0634 40.3217 65.4478 40.25 65.786C40.1833 66.1243 40.0757 66.4138 39.9271 66.6547C39.7836 66.8905 39.5914 67.0698 39.3505 67.1928C39.1148 67.3158 38.8304 67.3773 38.4972 67.3773C38.077 67.3773 37.7311 67.2697 37.4594 67.0545C37.1878 66.8341 36.9854 66.5189 36.8521 66.1089C36.7189 65.6989 36.6523 65.2069 36.6523 64.6329C36.6523 64.0538 36.7112 63.5618 36.8291 63.157C36.9521 62.747 37.1494 62.4343 37.421 62.2191C37.6926 61.9987 38.0514 61.8885 38.4972 61.8885C38.9175 61.8885 39.2634 61.9962 39.535 62.2114C39.8118 62.4267 40.0168 62.7393 40.15 63.1493C40.2884 63.5593 40.3576 64.0538 40.3576 64.6329ZM37.4671 64.6329C37.4671 65.0942 37.5004 65.4785 37.5671 65.786C37.6337 66.0884 37.7413 66.3165 37.8899 66.4702C38.0437 66.6188 38.2461 66.6931 38.4972 66.6931C38.7484 66.6931 38.9482 66.6188 39.0969 66.4702C39.2506 66.3216 39.3608 66.0935 39.4274 65.786C39.4992 65.4785 39.535 65.0942 39.535 64.6329C39.535 64.1666 39.4992 63.7822 39.4274 63.4798C39.3608 63.1775 39.2506 62.952 39.0969 62.8033C38.9482 62.6496 38.7484 62.5727 38.4972 62.5727C38.2461 62.5727 38.0437 62.6496 37.8899 62.8033C37.7413 62.952 37.6337 63.1775 37.5671 63.4798C37.5004 63.7822 37.4671 64.1666 37.4671 64.6329ZM46.6486 64.2409C46.6486 64.5484 46.6255 64.8533 46.5794 65.1557C46.5332 65.458 46.4564 65.7425 46.3487 66.009C46.2411 66.2755 46.0874 66.5112 45.8875 66.7162C45.6928 66.9212 45.4442 67.0826 45.1418 67.2005C44.8446 67.3184 44.4833 67.3773 44.0579 67.3773C43.9554 67.3773 43.835 67.3722 43.6966 67.3619C43.5582 67.3517 43.4429 67.3338 43.3507 67.3081V66.624C43.448 66.6547 43.5557 66.6778 43.6735 66.6931C43.7965 66.7085 43.9144 66.7162 44.0272 66.7162C44.3808 66.7162 44.6703 66.665 44.8958 66.5625C45.1265 66.46 45.3084 66.319 45.4416 66.1397C45.58 65.9603 45.6799 65.7502 45.7414 65.5093C45.8029 65.2684 45.8388 65.0096 45.8491 64.7329H45.8029C45.7261 64.8456 45.6313 64.9507 45.5185 65.0481C45.4058 65.1454 45.2674 65.2249 45.1034 65.2864C44.9445 65.3427 44.7523 65.3709 44.5268 65.3709C44.2142 65.3709 43.9375 65.3069 43.6966 65.1787C43.4609 65.0506 43.2789 64.8636 43.1508 64.6176C43.0227 64.3664 42.9586 64.0692 42.9586 63.7258C42.9586 63.3466 43.0304 63.0211 43.1739 62.7495C43.3225 62.4728 43.53 62.2601 43.7965 62.1115C44.0682 61.9629 44.3833 61.8885 44.7421 61.8885C45.0086 61.8885 45.2571 61.9372 45.4878 62.0346C45.7184 62.1269 45.9208 62.2703 46.0951 62.4651C46.2693 62.6598 46.4051 62.9058 46.5025 63.2031C46.5999 63.4952 46.6486 63.8411 46.6486 64.2409ZM44.7498 62.565C44.4577 62.565 44.2193 62.6573 44.0348 62.8418C43.8504 63.0263 43.7581 63.3158 43.7581 63.7104C43.7581 64.0231 43.835 64.2716 43.9887 64.4561C44.1476 64.6406 44.391 64.7329 44.719 64.7329C44.9445 64.7329 45.1393 64.6893 45.3033 64.6022C45.4673 64.5099 45.5954 64.3946 45.6876 64.2563C45.7799 64.1179 45.826 63.9744 45.826 63.8258C45.826 63.672 45.8029 63.5234 45.7568 63.3799C45.7107 63.2313 45.6415 63.0955 45.5493 62.9725C45.4621 62.8495 45.352 62.7521 45.2187 62.6803C45.0855 62.6035 44.9291 62.565 44.7498 62.565ZM52.9703 64.6329C52.9703 65.0634 52.9344 65.4478 52.8626 65.786C52.796 66.1243 52.6884 66.4138 52.5398 66.6547C52.3963 66.8905 52.2041 67.0698 51.9632 67.1928C51.7275 67.3158 51.443 67.3773 51.1099 67.3773C50.6897 67.3773 50.3438 67.2697 50.0721 67.0545C49.8005 66.8341 49.5981 66.5189 49.4648 66.1089C49.3316 65.6989 49.265 65.2069 49.265 64.6329C49.265 64.0538 49.3239 63.5618 49.4418 63.157C49.5648 62.747 49.7621 62.4343 50.0337 62.2191C50.3053 61.9987 50.6641 61.8885 51.1099 61.8885C51.5302 61.8885 51.8761 61.9962 52.1477 62.2114C52.4245 62.4267 52.6295 62.7393 52.7627 63.1493C52.9011 63.5593 52.9703 64.0538 52.9703 64.6329ZM50.0798 64.6329C50.0798 65.0942 50.1131 65.4785 50.1798 65.786C50.2464 66.0884 50.354 66.3165 50.5026 66.4702C50.6564 66.6188 50.8588 66.6931 51.1099 66.6931C51.361 66.6931 51.5609 66.6188 51.7095 66.4702C51.8633 66.3216 51.9735 66.0935 52.0401 65.786C52.1118 65.4785 52.1477 65.0942 52.1477 64.6329C52.1477 64.1666 52.1118 63.7822 52.0401 63.4798C51.9735 63.1775 51.8633 62.952 51.7095 62.8033C51.5609 62.6496 51.361 62.5727 51.1099 62.5727C50.8588 62.5727 50.6564 62.6496 50.5026 62.8033C50.354 62.952 50.2464 63.1775 50.1798 63.4798C50.1131 63.7822 50.0798 64.1666 50.0798 64.6329Z" fill="black"/>
<circle cx="42.2805" cy="42.2805" r="41.7805" stroke="black"/>
<path d="M5.71056 49.0311C5.79086 49.0074 5.84783 48.9606 5.88148 48.8904C5.91513 48.8203 5.92196 48.7325 5.90196 48.627C5.88837 48.5553 5.86676 48.4967 5.83711 48.4512C5.80814 48.4055 5.77357 48.3728 5.73341 48.3531C5.69337 48.3341 5.65103 48.3288 5.6064 48.3372C5.56894 48.3429 5.53795 48.3569 5.51343 48.379C5.48903 48.4019 5.46957 48.4304 5.45505 48.4647C5.44121 48.4989 5.43063 48.5373 5.42331 48.58C5.41667 48.6226 5.41257 48.6675 5.41101 48.7148L5.40175 48.9099C5.39864 49.0044 5.38735 49.0927 5.36789 49.1748C5.34843 49.257 5.31927 49.3305 5.28041 49.3953C5.24155 49.4601 5.19153 49.5141 5.13034 49.5572C5.06928 49.601 4.99554 49.6314 4.9091 49.6485C4.78182 49.6719 4.66543 49.6604 4.55993 49.6138C4.45522 49.5678 4.36577 49.4894 4.29155 49.3788C4.21814 49.2687 4.16541 49.1291 4.13337 48.9601C4.10158 48.7923 4.0996 48.6414 4.12741 48.5072C4.15536 48.3737 4.21311 48.2626 4.30068 48.1738C4.38905 48.0856 4.50765 48.0256 4.65647 47.9939L4.73703 48.419C4.66827 48.4369 4.61389 48.4679 4.57389 48.5119C4.53469 48.5565 4.5089 48.6107 4.49651 48.6747C4.48492 48.7393 4.4863 48.8094 4.50066 48.8852C4.51476 48.9596 4.53782 49.0221 4.56984 49.0728C4.602 49.1242 4.64023 49.1614 4.68455 49.1845C4.72887 49.2077 4.77605 49.2145 4.82609 49.205C4.87276 49.1961 4.90936 49.1748 4.93589 49.1411C4.96255 49.108 4.98204 49.063 4.99436 49.006C5.00681 48.9497 5.01498 48.8819 5.01889 48.8027L5.03282 48.5657C5.04224 48.3825 5.08264 48.2316 5.15404 48.113C5.22544 47.9943 5.33796 47.9208 5.49161 47.8924C5.61728 47.8679 5.73352 47.8805 5.84035 47.9303C5.9473 47.9808 6.03843 48.0606 6.11374 48.1696C6.18905 48.2787 6.24106 48.4089 6.26977 48.5604C6.299 48.7146 6.29813 48.8542 6.26716 48.9792C6.23633 49.1048 6.18 49.2087 6.09817 49.2907C6.01634 49.3728 5.91373 49.4266 5.79035 49.4521L5.71056 49.0311Z" fill="black"/>
<path d="M4.55035 50.7854L6.59671 50.2525L6.95577 51.6314L6.59905 51.7243L6.35266 50.7781L5.86505 50.905L6.09297 51.7803L5.73626 51.8732L5.50834 50.9979L5.01973 51.1252L5.26717 52.0754L4.91045 52.1683L4.55035 50.7854Z" fill="black"/>
<path d="M6.8406 54.7097C6.6223 54.784 6.42249 54.8058 6.24119 54.7751C6.06012 54.7451 5.90501 54.6728 5.77587 54.5583C5.6476 54.4441 5.55342 54.2988 5.49333 54.1222C5.4328 53.9443 5.41888 53.7709 5.45157 53.602C5.48427 53.4331 5.56321 53.2815 5.68841 53.1473C5.81362 53.0131 5.98504 52.9089 6.2027 52.8349C6.421 52.7606 6.62069 52.7385 6.80177 52.7685C6.98285 52.7985 7.13752 52.8705 7.26579 52.9847C7.39471 53.0986 7.48943 53.2445 7.54996 53.4224C7.61005 53.599 7.62375 53.7718 7.59106 53.9407C7.55924 54.11 7.48073 54.2618 7.35553 54.396C7.23055 54.5309 7.05891 54.6354 6.8406 54.7097ZM6.69459 54.2806C6.836 54.2325 6.94805 54.1707 7.03074 54.0953C7.11364 54.0206 7.16721 53.9366 7.19145 53.8432C7.21569 53.7499 7.2104 53.6521 7.17559 53.5498C7.14078 53.4475 7.08531 53.3667 7.00919 53.3076C6.93307 53.2484 6.83926 53.2142 6.72775 53.2048C6.61646 53.1962 6.49011 53.2159 6.3487 53.264C6.20729 53.3121 6.09514 53.3735 6.01223 53.4483C5.92954 53.5237 5.87608 53.608 5.85185 53.7014C5.82761 53.7947 5.8329 53.8925 5.86771 53.9948C5.90252 54.0971 5.95799 54.1778 6.03411 54.237C6.11023 54.2962 6.20393 54.3301 6.31522 54.3388C6.42673 54.3481 6.55319 54.3287 6.69459 54.2806Z" fill="black"/>
<path d="M8.71513 56.4921L8.89209 56.9027L7.631 57.4463C7.48941 57.5073 7.35093 57.5269 7.21558 57.505C7.0805 57.4838 6.95723 57.4256 6.84577 57.3305C6.73495 57.2351 6.64493 57.1071 6.57572 56.9465C6.50625 56.7854 6.47488 56.6317 6.48163 56.4856C6.48901 56.3393 6.53136 56.2097 6.60867 56.097C6.68599 55.9842 6.79545 55.8973 6.93704 55.8362L8.19813 55.2927L8.3751 55.7032L7.14909 56.2317C7.07513 56.2636 7.01634 56.308 6.97271 56.365C6.92935 56.4227 6.90405 56.4883 6.89679 56.5619C6.88953 56.6355 6.90293 56.7118 6.93698 56.7908C6.97131 56.8705 7.01758 56.9326 7.07579 56.9772C7.13428 57.0225 7.19923 57.0488 7.27065 57.0563C7.34234 57.0644 7.41516 57.0525 7.48912 57.0206L8.71513 56.4921Z" fill="black"/>
<path d="M7.46709 58.8095L9.34442 57.8363L9.55019 58.2332L8.0001 59.0368L8.41732 59.8416L8.09007 60.0112L7.46709 58.8095Z" fill="black"/>
<path d="M11.9799 62.3086L12.2293 62.6796L11.0897 63.4458C10.9618 63.5319 10.8293 63.5766 10.6922 63.58C10.5555 63.584 10.4237 63.5495 10.2966 63.4764C10.1701 63.4031 10.0581 63.2938 9.96055 63.1487C9.86261 63.0031 9.80352 62.8578 9.78329 62.713C9.76362 62.5678 9.78142 62.4327 9.83667 62.3076C9.89193 62.1825 9.98353 62.0769 10.1115 61.9909L11.2511 61.2247L11.5006 61.5957L10.3927 62.3406C10.3258 62.3855 10.2762 62.4401 10.2438 62.5041C10.2118 62.5688 10.199 62.638 10.2054 62.7116C10.2118 62.7853 10.239 62.8578 10.287 62.9292C10.3354 63.0012 10.3923 63.0538 10.4577 63.0869C10.5235 63.1206 10.5922 63.1346 10.6638 63.1288C10.7358 63.1235 10.8051 63.0984 10.872 63.0535L11.9799 62.3086Z" fill="black"/>
<path d="M13.9345 64.9157L12.2783 66.2304L12.0382 65.9279L12.5086 64.3799L12.499 64.3678L11.4566 65.1952L11.1786 64.8451L12.8349 63.5304L13.0788 63.8377L12.6047 65.3794L12.6162 65.3939L13.6578 64.5671L13.9345 64.9157Z" fill="black"/>
<path d="M15.0127 66.1315L13.4406 67.5457L13.1416 67.2134L14.7137 65.7991L15.0127 66.1315Z" fill="black"/>
<path d="M16.0038 67.1914L15.2367 68.6927L15.2506 68.7065L16.7449 67.925L17.0971 68.2737L15.0913 69.2636L14.6819 68.8582L15.6508 66.8419L16.0038 67.1914Z" fill="black"/>
<path d="M16.2659 70.3696L17.6459 68.7674L18.7255 69.6973L18.485 69.9765L17.7441 69.3384L17.4153 69.7202L18.1006 70.3105L17.86 70.5898L17.1747 69.9995L16.8452 70.3821L17.5892 71.0229L17.3487 71.3022L16.2659 70.3696Z" fill="black"/>
<path d="M18.1901 71.9711L19.459 70.2795L20.1264 70.7801C20.2541 70.8759 20.346 70.9806 20.402 71.094C20.459 71.2073 20.48 71.3233 20.465 71.442C20.4509 71.5605 20.402 71.6757 20.3181 71.7875C20.2339 71.8998 20.1372 71.9783 20.028 72.0229C19.9192 72.0669 19.8027 72.0759 19.6786 72.0499C19.5549 72.0243 19.4282 71.9627 19.2982 71.8652L18.8514 71.53L19.067 71.2426L19.456 71.5344C19.5243 71.5856 19.588 71.6188 19.6472 71.634C19.7064 71.6491 19.7611 71.6462 19.8112 71.6253C19.8618 71.6048 19.908 71.5667 19.9498 71.5111C19.9919 71.455 20.0161 71.3991 20.0225 71.3437C20.0293 71.2886 20.0174 71.234 19.9865 71.1799C19.9567 71.1257 19.9073 71.0727 19.8385 71.0211L19.5973 70.8402L18.5477 72.2394L18.1901 71.9711ZM19.6811 71.8865L19.524 72.9717L19.1292 72.6755L19.2953 71.5972L19.6811 71.8865Z" fill="black"/>
<path d="M22.1192 72.8988C22.1575 72.8244 22.1629 72.7508 22.1353 72.6781C22.1078 72.6053 22.0489 72.5398 21.9588 72.4815C21.8975 72.4418 21.8402 72.417 21.7868 72.4071C21.7337 72.3965 21.6862 72.399 21.6443 72.4145C21.6029 72.4303 21.5698 72.4573 21.5451 72.4955C21.5234 72.5265 21.5121 72.5585 21.5112 72.5916C21.5109 72.625 21.5182 72.6588 21.533 72.693C21.5481 72.7265 21.5687 72.7607 21.5945 72.7955C21.6208 72.8297 21.6505 72.8637 21.6836 72.8974L21.8184 73.0387C21.8846 73.1062 21.9408 73.1753 21.9868 73.246C22.0328 73.3168 22.0659 73.3886 22.086 73.4615C22.1061 73.5343 22.1106 73.6078 22.0996 73.6818C22.0892 73.7562 22.0604 73.8306 22.0131 73.905C21.9422 74.0132 21.8535 74.0895 21.747 74.1337C21.6415 74.1778 21.523 74.1885 21.3918 74.1658C21.2614 74.143 21.124 74.0849 20.9795 73.9914C20.8362 73.8987 20.7256 73.7959 20.6476 73.6832C20.5703 73.5709 20.5297 73.4524 20.5259 73.3278C20.523 73.2029 20.5614 73.0757 20.6412 72.9461L21.0044 73.1811C20.97 73.2433 20.9549 73.304 20.9591 73.3633C20.9643 73.4224 20.9858 73.4786 21.0236 73.5317C21.0623 73.5846 21.114 73.632 21.1788 73.6739C21.2423 73.715 21.3035 73.7415 21.3623 73.7533C21.4217 73.7654 21.475 73.7635 21.5223 73.7473C21.5696 73.7312 21.6071 73.7018 21.6348 73.659C21.6606 73.6191 21.6704 73.5779 21.6643 73.5354C21.6588 73.4933 21.6396 73.4481 21.6069 73.3999C21.5747 73.3521 21.5313 73.2994 21.4767 73.2419L21.3148 73.0683C21.1886 72.935 21.1073 72.8016 21.0707 72.6681C21.0341 72.5346 21.0585 72.4024 21.144 72.2716C21.2129 72.1637 21.3023 72.0883 21.4121 72.0454C21.5224 72.0028 21.643 71.9919 21.7739 72.0126C21.9048 72.0333 22.0349 72.0856 22.1644 72.1693C22.2962 72.2546 22.3966 72.3515 22.4657 72.4601C22.5354 72.5692 22.5717 72.6816 22.5746 72.7974C22.5775 72.9133 22.5457 73.0247 22.479 73.1316L22.1192 72.8988Z" fill="black"/>
<path d="M24.021 73.316L22.9733 75.1529L22.585 74.9314L23.6326 73.0945L24.021 73.316Z" fill="black"/>
<path d="M24.717 74.1293L24.8815 73.7994L26.4357 74.5742L26.2713 74.9041L25.6919 74.6153L24.9129 76.1779L24.5174 75.9807L25.2964 74.4181L24.717 74.1293Z" fill="black"/>
<path d="M27.0957 74.8804L27.5587 75.0713L27.6572 76.0971L27.6763 76.105L28.4693 75.4469L28.9322 75.6378L27.698 76.6076L27.413 77.2986L27.0026 77.1294L27.2876 76.4383L27.0957 74.8804Z" fill="black"/>
<path d="M32.7093 77.9266C32.6474 78.1488 32.5526 78.326 32.425 78.4584C32.298 78.5909 32.1508 78.6782 31.9834 78.7201C31.8168 78.7616 31.6436 78.7573 31.4639 78.7073C31.2829 78.6568 31.1319 78.5705 31.0109 78.4481C30.8899 78.3258 30.8093 78.1751 30.7692 77.996C30.7291 77.8169 30.7398 77.6166 30.8015 77.3952C30.8634 77.173 30.9578 76.9957 31.0848 76.8631C31.2118 76.7306 31.3585 76.6436 31.5252 76.6021C31.692 76.5599 31.8659 76.5641 32.0469 76.6145C32.2266 76.6646 32.3769 76.7508 32.4979 76.8731C32.6198 76.9949 32.7007 77.1454 32.7409 77.3245C32.7817 77.5038 32.7711 77.7045 32.7093 77.9266ZM32.2726 77.805C32.3127 77.6611 32.325 77.5337 32.3094 77.4229C32.2945 77.3123 32.2553 77.2207 32.192 77.148C32.1286 77.0753 32.0449 77.0245 31.9408 76.9955C31.8367 76.9665 31.7387 76.9667 31.6469 76.9961C31.5551 77.0256 31.4739 77.0837 31.4033 77.1705C31.3333 77.2575 31.2783 77.3729 31.2382 77.5168C31.1981 77.6607 31.1855 77.788 31.2004 77.8986C31.216 78.0094 31.2555 78.1011 31.3188 78.1738C31.3822 78.2465 31.4659 78.2973 31.57 78.3263C31.6741 78.3553 31.7721 78.3551 31.8639 78.3256C31.9557 78.2962 32.0366 78.238 32.1066 78.151C32.1772 78.0642 32.2325 77.9489 32.2726 77.805Z" fill="black"/>
<path d="M33.5472 79.2039L33.9641 77.1308L35.3367 77.4069L35.264 77.7682L34.3297 77.5803L34.2304 78.0743L35.0736 78.2439L35.0009 78.6053L34.1577 78.4357L33.9855 79.2921L33.5472 79.2039Z" fill="black"/>
<path d="M38.899 78.4727C38.8982 78.389 38.8686 78.3214 38.8103 78.2699C38.752 78.2184 38.6694 78.188 38.5624 78.1784C38.4897 78.172 38.4274 78.1768 38.3756 78.1929C38.3237 78.2084 38.2829 78.2327 38.253 78.266C38.2237 78.2993 38.2071 78.3386 38.2031 78.3839C38.1984 78.4215 38.2033 78.4551 38.218 78.4847C38.2333 78.5144 38.2555 78.5409 38.2845 78.5642C38.3136 78.5869 38.3477 78.6075 38.3868 78.6262C38.426 78.6442 38.4681 78.6604 38.5131 78.6747L38.6983 78.7368C38.7884 78.7655 38.8703 78.8005 38.944 78.8416C39.0178 78.8827 39.0805 78.9308 39.1323 78.9858C39.1841 79.0408 39.2224 79.1037 39.2472 79.1743C39.2727 79.245 39.2819 79.3242 39.2748 79.4121C39.2626 79.5409 39.2198 79.6497 39.1462 79.7386C39.0734 79.8268 38.9737 79.8915 38.847 79.9328C38.7211 79.9734 38.5724 79.9861 38.401 79.9709C38.231 79.9558 38.0852 79.9165 37.9637 79.8532C37.8428 79.79 37.7516 79.7041 37.6901 79.5957C37.6293 79.4866 37.6039 79.3562 37.614 79.2043L38.0449 79.2426C38.0434 79.3137 38.0584 79.3745 38.0898 79.4249C38.122 79.4748 38.1672 79.5144 38.2254 79.5437C38.2844 79.5725 38.3523 79.5903 38.4291 79.5971C38.5045 79.6038 38.5709 79.5986 38.6284 79.5816C38.6866 79.5647 38.7328 79.538 38.7672 79.5017C38.8015 79.4654 38.8209 79.4218 38.8254 79.3711C38.8296 79.3238 38.8191 79.2828 38.7939 79.248C38.7693 79.2134 38.7313 79.1824 38.6798 79.155C38.629 79.1277 38.5661 79.1013 38.4909 79.076L38.2667 78.998C38.0929 78.939 37.9587 78.859 37.8641 78.758C37.7694 78.657 37.7293 78.5287 37.7438 78.3731C37.7545 78.2455 37.7983 78.1371 37.8753 78.0479C37.953 77.9588 38.0546 77.8928 38.18 77.8501C38.3055 77.8073 38.445 77.7928 38.5986 77.8064C38.7549 77.8203 38.889 77.8592 39.0008 77.923C39.1133 77.9869 39.1978 78.0694 39.2545 78.1705C39.3112 78.2716 39.335 78.385 39.3259 78.5106L38.899 78.4727Z" fill="black"/>
<path d="M42.16 78.7274L41.7078 78.7205C41.7004 78.6618 41.6844 78.6096 41.6596 78.5638C41.6349 78.5173 41.6028 78.4775 41.5634 78.4446C41.5239 78.4116 41.4782 78.3861 41.4262 78.3681C41.3748 78.3501 41.3188 78.3406 41.2583 78.3397C41.1488 78.338 41.0531 78.3637 40.971 78.4169C40.889 78.4693 40.8248 78.5468 40.7785 78.6493C40.7322 78.7512 40.7079 78.8754 40.7056 79.022C40.7033 79.1728 40.7237 79.2997 40.7669 79.403C40.8107 79.5062 40.8728 79.5846 40.9532 79.6382C41.0337 79.6918 41.1272 79.7194 41.2339 79.721C41.2938 79.7219 41.3493 79.7149 41.4005 79.6998C41.4523 79.6848 41.4985 79.6624 41.5388 79.6328C41.5792 79.6024 41.6128 79.5654 41.6397 79.5218C41.6672 79.4781 41.6866 79.4282 41.6978 79.3719L42.1499 79.3809C42.1367 79.4778 42.106 79.571 42.0578 79.6604C42.0103 79.7492 41.9468 79.8284 41.8673 79.8981C41.7884 79.9671 41.6946 80.0214 41.5859 80.061C41.4779 80.1 41.3561 80.1184 41.2206 80.1163C41.032 80.1134 40.864 80.0681 40.7167 79.9805C40.57 79.8929 40.4549 79.7675 40.3714 79.6044C40.2885 79.4414 40.2489 79.2449 40.2524 79.015C40.256 78.7845 40.3023 78.589 40.3916 78.4286C40.4808 78.2682 40.6004 78.1468 40.7503 78.0644C40.9003 77.9814 41.0682 77.9413 41.254 77.9441C41.3766 77.946 41.4899 77.965 41.5939 78.001C41.6987 78.0371 41.7912 78.0887 41.8714 78.1561C41.9516 78.2227 42.0164 78.3039 42.0659 78.3997C42.1161 78.4954 42.1474 78.6047 42.16 78.7274Z" fill="black"/>
<path d="M43.5669 77.9269L43.6606 80.0394L43.214 80.0592L43.1203 77.9467L43.5669 77.9269Z" fill="black"/>
<path d="M44.841 79.9753L44.6335 77.8709L46.0515 77.7311L46.0877 78.0979L45.1146 78.1939L45.1641 78.6953L46.0642 78.6066L46.1004 78.9734L45.2002 79.0621L45.2498 79.5646L46.227 79.4683L46.2631 79.8351L44.841 79.9753Z" fill="black"/>
<path d="M48.7205 77.297L49.0813 79.3806L48.7008 79.4465L47.5672 78.2921L47.552 78.2948L47.7791 79.6061L47.3386 79.6824L46.9777 77.5989L47.3643 77.5319L48.4906 78.6865L48.5089 78.6833L48.282 77.373L48.7205 77.297Z" fill="black"/>
<path d="M51.848 77.3247L51.4099 77.4368C51.3874 77.3822 51.3582 77.336 51.3223 77.2983C51.2861 77.26 51.2447 77.2301 51.198 77.2086C51.1513 77.1872 51.1005 77.1746 51.0456 77.1709C50.9913 77.167 50.9348 77.1726 50.8761 77.1876C50.7701 77.2147 50.6845 77.2647 50.6193 77.3375C50.5539 77.4097 50.5123 77.5013 50.4946 77.6124C50.4767 77.7229 50.4859 77.8491 50.5222 77.9912C50.5596 78.1372 50.6126 78.2544 50.6814 78.3427C50.7508 78.4308 50.8314 78.4901 50.9231 78.5206C51.0147 78.5512 51.1122 78.5532 51.2156 78.5268C51.2736 78.5119 51.3253 78.4905 51.3707 78.4626C51.4168 78.4344 51.4555 78.4007 51.4866 78.3615C51.5176 78.3216 51.5403 78.2771 51.5548 78.2279C51.5699 78.1786 51.5754 78.1253 51.5714 78.068L52.0101 77.9579C52.0228 78.0549 52.0176 78.1528 51.9946 78.2518C51.9721 78.3499 51.9317 78.443 51.8732 78.5312C51.8153 78.6185 51.7391 78.6955 51.6446 78.7623C51.5506 78.8283 51.438 78.8781 51.3066 78.9117C51.1239 78.9584 50.9499 78.9589 50.7847 78.9131C50.6202 78.867 50.4762 78.7764 50.3527 78.641C50.23 78.5054 50.1401 78.3263 50.0831 78.1035C50.0259 77.8801 50.0193 77.6793 50.0632 77.5011C50.1072 77.3229 50.1906 77.1744 50.3137 77.0555C50.4366 76.9359 50.5881 76.8531 50.7681 76.8071C50.8868 76.7767 51.0011 76.7652 51.111 76.7726C51.2216 76.7799 51.3244 76.8054 51.4194 76.8493C51.5143 76.8925 51.5982 76.9538 51.6711 77.0332C51.7447 77.1125 51.8037 77.2096 51.848 77.3247Z" fill="black"/>
<path d="M53.2237 78.3348L52.555 76.3287L53.9067 75.8781L54.0233 76.2278L53.0957 76.537L53.255 77.015L54.1131 76.7289L54.2297 77.0786L53.3716 77.3647L53.5313 77.8437L54.4628 77.5331L54.5794 77.8828L53.2237 78.3348Z" fill="black"/>
<path d="M57.4263 76.7343L56.9915 76.9356L56.7656 74.7099L57.2885 74.4679L58.8383 76.0806L58.4036 76.2819L57.2376 75.024L57.2226 75.0309L57.4263 76.7343ZM57.0499 75.9926L58.0769 75.5172L58.2235 75.8339L57.1965 76.3093L57.0499 75.9926Z" fill="black"/>
<path d="M60.1342 72.9745L61.1676 74.8193L60.8307 75.0081L59.3777 74.2965L59.3642 74.3041L60.0146 75.4653L59.6246 75.6838L58.5911 73.8389L58.9334 73.6471L60.3797 74.3613L60.3959 74.3522L59.7459 73.192L60.1342 72.9745Z" fill="black"/>
<path d="M62.9264 73.7166L62.3033 74.1334L61.1275 72.3759L61.7557 71.9556C61.9325 71.8374 62.1082 71.7707 62.2829 71.7557C62.4571 71.7402 62.6224 71.775 62.7787 71.86C62.9356 71.9447 63.0751 72.0783 63.1972 72.2609C63.3197 72.4439 63.3903 72.6244 63.4091 72.8023C63.4285 72.9798 63.3974 73.1468 63.3157 73.3033C63.2346 73.4594 63.1049 73.5972 62.9264 73.7166ZM62.4619 73.5665L62.6979 73.4086C62.8078 73.3351 62.8871 73.2538 62.9361 73.1648C62.9852 73.0748 63.001 72.9759 62.9837 72.8683C62.9665 72.7597 62.9141 72.6399 62.8265 72.5089C62.7396 72.379 62.6494 72.2857 62.556 72.229C62.4631 72.1718 62.3662 72.1489 62.2652 72.1601C62.1642 72.1714 62.0588 72.2137 61.949 72.2872L61.7121 72.4457L62.4619 73.5665Z" fill="black"/>
<path d="M64.8114 70.1692L64.5725 69.8885L65.8949 68.7628L66.1338 69.0434L65.6409 69.4631L66.7726 70.7926L66.4361 71.079L65.3044 69.7496L64.8114 70.1692Z" fill="black"/>
<path d="M67.9997 69.6995L66.5236 68.1854L67.5439 67.1907L67.8012 67.4547L67.101 68.1372L67.4528 68.498L68.1004 67.8666L68.3577 68.1306L67.7101 68.762L68.0625 69.1235L68.7656 68.4381L69.0229 68.702L67.9997 69.6995Z" fill="black"/>
<path d="M69.9879 65.6112L69.6874 65.9491C69.6382 65.9164 69.5882 65.8945 69.5373 65.8833C69.4859 65.8717 69.4349 65.8701 69.3842 65.8784C69.3334 65.8868 69.2843 65.9048 69.2367 65.9324C69.1895 65.9596 69.1458 65.9958 69.1055 66.041C69.0328 66.1228 68.9898 66.2121 68.9764 66.309C68.9626 66.4053 68.9794 66.5046 69.0268 66.6066C69.0737 66.7082 69.152 66.8077 69.2615 66.9051C69.3742 67.0053 69.4837 67.0727 69.5901 67.1075C69.6969 67.1417 69.7968 67.1458 69.8899 67.1199C69.983 67.0939 70.065 67.0411 70.1359 66.9614C70.1757 66.9166 70.2066 66.8699 70.2286 66.8214C70.2511 66.7723 70.2642 66.7227 70.2681 66.6728C70.2715 66.6224 70.2654 66.5727 70.2499 66.5239C70.2348 66.4746 70.2096 66.4273 70.1743 66.3821L70.4764 66.0455C70.5411 66.1187 70.5916 66.2028 70.6279 66.2977C70.6641 66.3916 70.6827 66.4915 70.6835 66.5972C70.6843 66.702 70.6642 66.8085 70.6232 66.9167C70.5822 67.0239 70.5167 67.1282 70.4266 67.2295C70.3012 67.3705 70.1573 67.4682 69.9947 67.5225C69.8326 67.5764 69.6625 67.5818 69.4844 67.5386C69.3068 67.4949 69.1321 67.3966 68.9603 67.2439C68.788 67.0906 68.6702 66.9279 68.607 66.7556C68.5437 66.5833 68.5299 66.4134 68.5654 66.246C68.6004 66.0782 68.6797 65.9249 68.8032 65.786C68.8846 65.6944 68.9729 65.621 69.0681 65.5657C69.1639 65.5098 69.2634 65.4735 69.3667 65.4567C69.4696 65.4395 69.5734 65.4434 69.6782 65.4684C69.7835 65.493 69.8868 65.5406 69.9879 65.6112Z" fill="black"/>
<path d="M71.703 65.6842L70.0193 64.4049L70.2898 64.049L70.9845 64.5768L71.5336 63.8541L70.8389 63.3263L71.1087 62.9712L72.7924 64.2505L72.5226 64.6056L71.8271 64.0772L71.278 64.7998L71.9735 65.3283L71.703 65.6842Z" fill="black"/>
<path d="M72.6315 60.6869L74.4109 61.8293L74.2023 62.1543L72.5853 62.2094L72.5769 62.2224L73.6969 62.9415L73.4553 63.3177L71.6759 62.1753L71.8879 61.8451L73.5001 61.7955L73.5101 61.7799L72.391 61.0614L72.6315 60.6869Z" fill="black"/>
<path d="M75.0709 58.4668C75.2744 58.5753 75.4269 58.7061 75.5285 58.8594C75.6305 59.012 75.6838 59.1746 75.6885 59.3472C75.693 59.5188 75.6513 59.6869 75.5635 59.8515C75.4751 60.0174 75.3581 60.1461 75.2125 60.2378C75.067 60.3294 74.9024 60.3755 74.7188 60.3759C74.5353 60.3763 74.3421 60.3224 74.1392 60.2143C73.9357 60.1058 73.783 59.9752 73.6811 59.8226C73.5791 59.67 73.526 59.5078 73.5215 59.3362C73.5165 59.1642 73.5582 58.9953 73.6466 58.8295C73.7343 58.6649 73.851 58.5368 73.9966 58.4451C74.1419 58.3525 74.3063 58.306 74.4899 58.3056C74.6737 58.3046 74.8674 58.3583 75.0709 58.4668ZM74.8577 58.8667C74.7258 58.7965 74.6042 58.757 74.4926 58.7482C74.3814 58.7388 74.2834 58.7572 74.1988 58.8033C74.1141 58.8494 74.0464 58.9202 73.9955 59.0155C73.9447 59.1109 73.9237 59.2066 73.9326 59.3026C73.9415 59.3986 73.9806 59.4905 74.0501 59.5782C74.1199 59.6653 74.2207 59.744 74.3525 59.8143C74.4843 59.8846 74.6058 59.9244 74.717 59.9338C74.8286 59.9426 74.9267 59.9239 75.0113 59.8777C75.096 59.8316 75.1638 59.7609 75.2146 59.6655C75.2654 59.5701 75.2864 59.4745 75.2775 59.3785C75.2687 59.2825 75.2293 59.1909 75.1595 59.1038C75.0901 59.016 74.9895 58.937 74.8577 58.8667Z" fill="black"/>
<path d="M76.4989 57.9287L74.5652 57.073L74.7461 56.6642L76.3428 57.3707L76.7096 56.5417L77.0467 56.6908L76.4989 57.9287Z" fill="black"/>
<path d="M77.1465 53.4325C77.3636 53.5101 77.5336 53.6173 77.6565 53.7541C77.7796 53.8902 77.8561 54.0433 77.8859 54.2133C77.9154 54.3825 77.8987 54.5549 77.8359 54.7305C77.7726 54.9075 77.6757 55.0519 77.545 55.1638C77.4143 55.2758 77.2583 55.3453 77.0767 55.3725C76.8952 55.3997 76.6962 55.3746 76.4797 55.2972C76.2626 55.2196 76.0925 55.1127 75.9694 54.9766C75.8462 54.8405 75.77 54.6878 75.7405 54.5187C75.7104 54.3493 75.727 54.1761 75.7903 53.9992C75.8531 53.8235 75.9498 53.6797 76.0805 53.5678C76.2107 53.455 76.3666 53.385 76.5481 53.3578C76.7299 53.3299 76.9293 53.3548 77.1465 53.4325ZM76.9939 53.8593C76.8532 53.809 76.7271 53.7877 76.6154 53.7953C76.504 53.8022 76.4098 53.8347 76.3328 53.8927C76.2557 53.9507 76.199 54.0305 76.1627 54.1323C76.1263 54.2341 76.1195 54.3318 76.1423 54.4255C76.1651 54.5191 76.2172 54.6043 76.2987 54.681C76.3805 54.757 76.4917 54.8201 76.6323 54.8704C76.773 54.9207 76.899 54.9424 77.0104 54.9354C77.1221 54.9278 77.2164 54.895 77.2934 54.837C77.3704 54.779 77.4271 54.6992 77.4635 54.5974C77.4999 54.4956 77.5067 54.3979 77.4839 54.3042C77.4611 54.2106 77.4088 54.1257 77.3271 54.0497C77.2456 53.9731 77.1345 53.9096 76.9939 53.8593Z" fill="black"/>
<path d="M77.4699 50.9572C77.4176 50.9581 77.3694 50.9661 77.3254 50.9812C77.2807 50.9962 77.2404 51.0185 77.2046 51.048C77.1683 51.0767 77.1369 51.1124 77.1103 51.1552C77.084 51.1972 77.0632 51.2462 77.0481 51.302C77.0199 51.4063 77.021 51.505 77.0514 51.5981C77.082 51.6905 77.1409 51.7721 77.228 51.8427C77.3145 51.9132 77.4288 51.9677 77.571 52.0062C77.7132 52.0447 77.8399 52.0558 77.9513 52.0396C78.0627 52.0234 78.1553 51.9829 78.2292 51.918C78.3024 51.853 78.3536 51.7666 78.3827 51.659C78.4092 51.5613 78.4145 51.4733 78.3986 51.3948C78.3823 51.3155 78.3472 51.2489 78.2933 51.1951C78.2396 51.1407 78.1692 51.1016 78.0822 51.0781L78.1189 50.9939L77.9764 51.5201L77.6515 51.4322L77.8827 50.578L78.1399 50.6476C78.3192 50.6962 78.4631 50.7758 78.5715 50.8864C78.6793 50.9969 78.75 51.128 78.7838 51.2798C78.8169 51.4314 78.8103 51.5929 78.7639 51.7643C78.7121 51.9557 78.6244 52.1123 78.5008 52.2344C78.3765 52.3562 78.2254 52.4365 78.0473 52.4753C77.8687 52.5132 77.6718 52.5031 77.4565 52.4448C77.2911 52.4 77.1501 52.3361 77.0334 52.2532C76.9163 52.1695 76.8244 52.0718 76.7576 51.9603C76.6908 51.8488 76.6495 51.7289 76.6336 51.6005C76.6177 51.4721 76.628 51.3405 76.6645 51.2056C76.6958 51.09 76.7419 50.987 76.8028 50.8965C76.863 50.8058 76.9341 50.7302 77.0161 50.6697C77.0982 50.6085 77.1882 50.5647 77.2859 50.5384C77.3829 50.5119 77.4838 50.5053 77.5886 50.5187L77.4699 50.9572Z" fill="black"/>
<path d="M77.1118 49.5452L77.206 49.0534L78.1911 48.7511L78.195 48.7308L77.3913 48.086L77.4855 47.5941L78.6831 48.6088L79.4173 48.7494L79.3338 49.1855L78.5996 49.0448L77.1118 49.5452Z" fill="black"/>
<path d="M16.3268 14.4823L17.4396 13.6604L17.6613 13.9607L16.5485 14.7826L16.3268 14.4823ZM14.6205 14.1865L14.9208 13.9647L15.4458 14.6757C16.1079 15.5721 16.2681 16.7778 15.8878 17.5842L15.4385 17.4656C15.8106 16.7404 15.6935 15.6393 15.1456 14.8975L14.6205 14.1865ZM14.6911 14.1343L14.987 13.9158L15.5121 14.6268C16.0502 15.3554 17.0355 15.7469 17.8162 15.5935L17.8184 16.0491C16.9323 16.1985 15.862 15.7196 15.2162 14.8453L14.6911 14.1343ZM16.2572 12.4385L16.6193 12.171L19.5742 16.1719L19.2121 16.4393L16.2572 12.4385Z" fill="black"/>
<path d="M22.1444 11.6171L22.5443 11.4103L22.8947 12.0882L22.4948 12.2949L22.1444 11.6171ZM21.3056 9.49223C22.276 8.99055 22.995 8.95878 23.2496 9.45132C23.5042 9.94387 23.0651 10.517 22.0946 11.0186C21.1193 11.5228 20.4027 11.5472 20.1481 11.0547C19.8934 10.5621 20.3302 9.99642 21.3056 9.49223ZM21.4644 9.79946C20.7426 10.1726 20.4138 10.5526 20.5626 10.8404C20.7138 11.133 21.2141 11.0845 21.9358 10.7114C22.6527 10.3408 22.9815 9.96073 22.8302 9.66813C22.6815 9.3804 22.1813 9.42888 21.4644 9.79946ZM20.2463 12.3325L24.2305 10.2729L24.402 10.6045L20.4177 12.6642L20.2463 12.3325ZM21.1097 12.8194L24.104 11.2715L24.6183 12.2663L22.0337 13.6024L22.311 14.1389L21.9111 14.3456L21.4825 13.5166L24.0671 12.1804L23.8655 11.7903L21.2711 13.1315L21.1097 12.8194ZM21.8657 14.2578L24.9819 12.6469L25.1458 12.9639L22.0296 14.5748L21.8657 14.2578Z" fill="black"/>
<path d="M26.1974 7.76477L28.3301 7.06258L28.4451 7.41195L26.3125 8.11413L26.1974 7.76477ZM27.3756 8.86801L27.8032 8.72722L28.3285 10.3228L27.901 10.4636L27.3756 8.86801ZM28.1528 7.12096L28.5752 6.98189L28.6576 7.23218C28.7846 7.61805 28.9872 8.23334 29.1401 9.15399L28.6988 9.25306C28.5597 8.35676 28.3606 7.7519 28.2352 7.37125L28.1528 7.12096ZM28.9997 6.26995L29.4272 6.12917L30.9793 10.843L30.5517 10.9837L28.9997 6.26995ZM29.9615 8.13797L30.8323 7.85126L30.9525 8.21627L30.0817 8.50298L29.9615 8.13797ZM27.0327 11.0038L26.8604 10.6559C27.7155 10.3744 28.8471 9.98447 29.7619 9.55036L29.8874 9.86157C28.9639 10.339 27.8653 10.7239 27.0327 11.0038Z" fill="black"/>
<path d="M32.8596 5.76527L35.7541 5.30102L35.8132 5.66961L32.9187 6.13386L32.8596 5.76527ZM34.4059 6.15108C35.0998 6.0398 35.6324 6.3102 35.7193 6.85225C35.8054 7.38887 35.3832 7.80687 34.6894 7.91815C33.9847 8.03117 33.4583 7.76532 33.3723 7.22869C33.2853 6.68665 33.7013 6.2641 34.4059 6.15108ZM34.4624 6.50341C34.0125 6.57557 33.7475 6.82936 33.8005 7.16001C33.8518 7.47982 34.1838 7.6434 34.6337 7.57124C35.0728 7.50082 35.3424 7.24073 35.2911 6.92093C35.2381 6.59028 34.9015 6.43299 34.4624 6.50341ZM36.116 4.71478L36.5659 4.64262L37.0571 7.70519L36.6072 7.77735L36.116 4.71478ZM36.6577 6.01232L37.5087 5.87582L37.5687 6.24983L36.7177 6.38633L36.6577 6.01232ZM33.9179 8.48112L37.0997 7.97079L37.3518 9.54272L36.9019 9.61488L36.7089 8.41154L33.977 8.84971L33.9179 8.48112ZM33.9922 5.02761L34.4421 4.95545L34.5621 5.70348L34.1122 5.77564L33.9922 5.02761Z" fill="black"/>
<path d="M43.5654 4.30141H44.0211V9.26414H43.5654V4.30141ZM42.1107 4.83392H42.5608C42.5608 6.27223 41.913 7.52938 40.2551 8.34186L40.0136 7.97405C41.4464 7.28234 42.1107 6.22831 42.1107 4.91077V4.83392ZM40.2387 4.83392H42.3083V5.20722H40.2387V4.83392Z" fill="black"/>
<path d="M49.1797 4.84295L49.5591 4.90381L49.5304 5.08268C49.3965 5.91743 48.353 6.32273 47.3131 6.28937L47.2169 5.91812C48.1215 5.96313 49.0536 5.62892 49.151 5.02182L49.1797 4.84295ZM49.2556 4.85512L49.635 4.91598L49.6063 5.09485C49.5089 5.70194 50.2897 6.31089 51.163 6.55104L50.9502 6.87273C49.9574 6.58007 49.093 5.86875 49.2269 5.034L49.2556 4.85512ZM48.8128 7.13038L49.2573 7.20167L49.1373 7.9497L48.6928 7.87841L48.8128 7.13038ZM46.8661 6.54571L51.2946 7.25601L51.2363 7.61918L46.8078 6.90889L46.8661 6.54571ZM47.2671 7.47738L50.5952 8.01118L50.4161 9.1278L47.5433 8.66702L47.4485 9.25785L47.0041 9.18656L47.151 8.2705L50.0238 8.73128L50.0951 8.2868L47.2114 7.82429L47.2671 7.47738ZM47.0206 9.08357L50.4843 9.63911L50.4277 9.99144L46.9641 9.4359L47.0206 9.08357Z" fill="black"/>
<path d="M57.9035 7.03556L58.3206 7.17291L56.7686 11.8867L56.3515 11.7494L57.9035 7.03556ZM56.4842 8.66049L57.3915 8.95922L57.273 9.31901L56.3657 9.02028L56.4842 8.66049ZM56.8002 6.7879L57.2069 6.92181L55.7682 11.2915L55.3615 11.1575L56.8002 6.7879ZM53.4374 9.10223L53.745 9.20352C54.4333 9.43015 54.9112 9.55859 55.4965 9.62414L55.4197 9.99767C54.8171 9.93218 54.3357 9.79681 53.6265 9.56332L53.3189 9.46202L53.4374 9.10223ZM54.2992 6.48461L56.0512 7.06147L55.9345 7.41605L54.61 6.97997L53.8117 9.40466L53.3841 9.26388L54.2992 6.48461Z" fill="black"/>
<path d="M60.9097 8.78912L63.5139 10.1353L63.3424 10.4669L60.7383 9.12073L60.9097 8.78912ZM61.9244 10.0182C62.5486 10.3408 62.8164 10.8748 62.5643 11.3625C62.3148 11.8452 61.7268 11.9306 61.1026 11.608C60.4686 11.2802 60.2032 10.7537 60.4527 10.2709C60.7048 9.78321 61.2904 9.69043 61.9244 10.0182ZM61.7605 10.3351C61.3558 10.1259 60.9918 10.1726 60.838 10.47C60.6892 10.7578 60.8591 11.0866 61.2639 11.2958C61.6589 11.5 62.0303 11.451 62.1791 11.1633C62.3329 10.8658 62.1556 10.5393 61.7605 10.3351ZM64.1532 9.87874L64.558 10.088L63.1337 12.8433L62.7289 12.6341L64.1532 9.87874ZM63.8181 11.2443L64.5838 11.6401L64.4098 11.9766L63.6442 11.5808L63.8181 11.2443ZM60.1475 11.6025L63.0101 13.0823L62.2791 14.4965L61.8743 14.2873L62.434 13.2046L59.9761 11.9341L60.1475 11.6025ZM62.2591 8.86866L62.6638 9.0779L62.3159 9.75089L61.9112 9.54165L62.2591 8.86866Z" fill="black"/>
<path d="M67.5597 12.5058L70.1298 14.4039L69.9048 14.7086L67.3347 12.8105L67.5597 12.5058ZM65.17 14.9652L68.7778 17.6299L68.5527 17.9345L64.9449 15.2699L65.17 14.9652ZM67.0283 14.2972L67.3904 14.5646L66.3337 15.9954L65.9716 15.7279L67.0283 14.2972ZM70.0106 14.3159L70.3727 14.5833L70.0465 15.0249C69.6715 15.5327 69.2866 16.0538 68.5985 16.699L68.2646 16.3841C68.9278 15.7819 69.3192 15.252 69.6844 14.7575L70.0106 14.3159ZM68.0131 15.0245L68.3752 15.2919L67.3185 16.7227L66.9564 16.4552L68.0131 15.0245Z" fill="black"/>
<path d="M15.5 48.5L15.5508 36.9958H33.5102V54.7728H21.6181V48.8471H15M51.3483 37.2921V54.7728H69.1864V48.8471H63.2404V42.9215H69.1864V36.9958H51.3483V19.2188H33.5102V36.6995H51.051" stroke="black"/>
<circle cx="7.92771" cy="29.2012" r="1.20115" fill="black"/>
<circle cx="77.5942" cy="29.2012" r="1.20115" fill="black"/>
</svg>
