<svg width="203" height="58" viewBox="0 0 203 58" fill="none" xmlns="http://www.w3.org/2000/svg">
<g clip-path="url(#clip0_2038_3634)">
<path d="M194.567 4.13243C194.567 4.13243 194.646 7.02569 197.079 8.33585C198.114 7.56739 198.787 6.34122 198.787 4.95547C198.787 2.6291 196.898 0.743652 194.567 0.743652C192.235 0.743652 190.346 2.6291 190.346 4.95547C190.346 6.34122 191.019 7.56739 192.054 8.33585C194.487 7.02569 194.567 4.13243 194.567 4.13243Z" fill="white"/>
<path d="M192.501 8.60449C192.395 8.5457 192.29 8.48272 192.193 8.41553C192.147 8.38613 192.101 8.35674 192.054 8.33154C191.533 8.10479 190.96 7.97461 190.359 7.97461C188.027 7.97461 186.138 9.86006 186.138 12.1864C186.138 14.5128 188.027 16.3983 190.359 16.3983C192.69 16.3983 194.462 14.622 194.571 12.3922C194.52 11.8337 194.222 9.80127 192.505 8.60449H192.501Z" fill="white"/>
<path d="M198.78 7.96631C198.174 7.96631 197.601 8.09648 197.084 8.32324C197.033 8.34844 196.991 8.38203 196.945 8.40723C196.844 8.47441 196.743 8.5374 196.638 8.59619C194.921 9.79297 194.622 11.8212 194.571 12.3839C194.681 14.6137 196.52 16.3899 198.784 16.3899C201.048 16.3899 203.005 14.5045 203.005 12.1781C203.005 9.85176 201.115 7.96631 198.784 7.96631H198.78Z" fill="white"/>
<path d="M192.851 8.78662L192.846 8.78101V8.78662H192.851Z" fill="white"/>
<path d="M157.088 13.8199C155.67 13.8199 154.349 14.4876 153.469 15.6088C151.479 14.6136 149.24 14.0887 146.951 14.0887C138.757 14.0887 132.096 20.715 132.096 28.8573C132.096 36.9996 138.762 43.626 146.951 43.626C148.84 43.626 150.73 43.2565 152.485 42.5426V42.7946C152.485 46.0784 149.808 48.7449 146.521 48.7449C144.733 48.7449 143.092 48.0142 142.023 46.7334C141.206 45.7718 140.066 45.1965 138.812 45.1167C137.592 45.0411 136.422 45.4401 135.53 46.2547C134.595 47.0148 134.027 48.1066 133.926 49.3328C133.825 50.5505 134.2 51.7557 135.004 52.7467C137.878 56.0809 142.073 57.9958 146.521 57.9958C154.892 57.9958 161.7 51.1762 161.7 42.7946V18.4097C161.7 15.8733 159.634 13.8115 157.092 13.8115L157.088 13.8199ZM152.485 28.8573C152.485 31.9312 150.002 34.4339 146.951 34.4339C143.9 34.4339 141.362 31.9312 141.362 28.8573C141.362 25.7835 143.87 23.2808 146.951 23.2808C150.031 23.2808 152.485 25.7835 152.485 28.8573Z" fill="white"/>
<path d="M177.696 14.0635C169.502 14.0635 162.841 20.7151 162.841 28.8868C162.841 37.0585 169.507 43.71 177.696 43.71C185.885 43.71 192.547 37.0837 192.606 28.9288C192.547 20.7319 185.856 14.0593 177.696 14.0593V14.0635ZM183.284 28.8868C183.284 31.9606 180.776 34.4634 177.696 34.4634C174.615 34.4634 172.107 31.9606 172.107 28.8868C172.107 25.813 174.615 23.3102 177.696 23.3102C180.776 23.3102 183.284 25.813 183.284 28.8868Z" fill="white"/>
<path d="M47.1153 24.7841C47.0354 24.7841 46.9596 24.7925 46.8839 24.7925V24.7841H42.562C41.8677 24.7841 41.3038 24.2214 41.3038 23.5286C41.3038 22.8357 41.8677 22.273 42.562 22.273H51.6265C53.899 22.273 55.7422 20.4337 55.7422 18.1662C55.7422 15.8986 53.899 14.0593 51.6265 14.0593H40.5463C40.521 14.0593 40.4958 14.0593 40.4705 14.0593C40.4411 14.0593 40.4158 14.0593 40.3906 14.0593C35.1514 14.0593 30.9053 18.2963 30.9053 23.5244C30.9053 27.9546 33.952 31.6709 38.0719 32.7039C38.539 32.8844 39.044 32.9894 39.5742 32.9894H44.9481C45.6424 32.9894 46.2063 33.5521 46.2063 34.245C46.2063 34.9379 45.6424 35.5006 44.9481 35.5006H35.8836C33.6112 35.5006 31.768 37.3398 31.768 39.6074C31.768 41.875 33.6112 43.7142 35.8836 43.7142H46.9638C46.9638 43.7142 46.9975 43.7142 47.0143 43.7142C47.048 43.7142 47.0816 43.7142 47.1195 43.7142C52.3587 43.7142 56.6048 39.4772 56.6048 34.2492C56.6048 29.0212 52.3587 24.7841 47.1195 24.7841H47.1153Z" fill="white"/>
<path d="M84.5098 43.71C82.0354 43.6723 80.0996 41.5474 80.0996 39.0783V28.0469C80.0996 27.9378 80.108 27.8244 80.1122 27.7152C80.8613 17.9016 88.5918 14.5086 92.5728 14.0845C92.7285 14.0677 92.8421 14.0635 93.0483 14.0593H98.4306C100.905 14.0593 103.034 15.991 103.072 18.4601C103.11 20.9628 101.09 23.0037 98.5905 23.0037H93.3891C92.2445 23.2178 89.4461 24.1627 89.0631 28.2317V39.2337C89.0631 41.728 87.0179 43.7436 84.5098 43.7058V43.71Z" fill="white"/>
<path d="M74.41 34.5977H73.4716C73.0676 34.5977 72.7394 34.2701 72.7394 33.867V22.8314C72.7394 22.8314 72.7436 22.8189 72.752 22.8189H74.7845C77.0317 22.8189 79.0475 21.2483 79.4052 19.0354C79.8681 16.1967 77.6714 13.7359 74.915 13.7359H72.752C72.752 13.7359 72.7394 13.7317 72.7394 13.7233V5.75321C72.7394 3.51083 71.1655 1.4994 68.9478 1.13826C66.103 0.67635 63.637 2.86414 63.637 5.61883V13.7191C63.637 13.7191 63.6328 13.7317 63.6244 13.7317H61.5413C59.2941 13.7317 57.2784 15.3022 56.9165 17.5152C56.4536 20.3539 58.646 22.8147 61.4066 22.8147H63.6202C63.6202 22.8147 63.6328 22.8189 63.6328 22.8273V36.7393C63.6328 40.7159 66.8899 43.8486 70.8709 43.7016H74.4268C76.9392 43.6932 78.9759 41.6566 78.9759 39.1496C78.9759 38.1376 78.6435 37.2096 78.0838 36.4537C77.2548 35.3283 75.9208 34.5977 74.41 34.5977Z" fill="white"/>
<path d="M28.6285 34.0392C29.2429 32.4183 29.5837 30.6588 29.5837 28.8195C29.5837 20.6689 22.96 14.0635 14.7919 14.0635C6.62373 14.0635 0 20.6689 0 28.8195C0 36.9702 6.62373 43.5756 14.7919 43.5756C17.1064 43.5756 19.2947 43.0465 21.2431 42.1017C22.2362 43.0969 23.6081 43.7142 25.1272 43.7142C28.1529 43.7142 30.6063 41.266 30.6063 38.2468C30.6063 36.5545 29.8362 35.0428 28.6243 34.0392H28.6285ZM14.7919 34.2869C11.7662 34.2869 9.31278 31.8388 9.31278 28.8195C9.31278 25.8003 11.7662 23.3522 14.7919 23.3522C17.8176 23.3522 20.271 25.8003 20.271 28.8195C20.271 31.8388 17.8176 34.2869 14.7919 34.2869Z" fill="white"/>
<path d="M129.988 34.0392C130.602 32.4183 130.943 30.6588 130.943 28.8195C130.943 20.6689 124.319 14.0635 116.151 14.0635C107.983 14.0635 101.359 20.6689 101.359 28.8195C101.359 36.9702 107.983 43.5756 116.151 43.5756C118.466 43.5756 120.654 43.0465 122.602 42.1017C123.596 43.0969 124.967 43.7142 126.487 43.7142C129.512 43.7142 131.966 41.266 131.966 38.2468C131.966 36.5545 131.196 35.0428 129.984 34.0392H129.988ZM116.151 34.2869C113.126 34.2869 110.672 31.8388 110.672 28.8195C110.672 25.8003 113.126 23.3522 116.151 23.3522C119.177 23.3522 121.63 25.8003 121.63 28.8195C121.63 31.8388 119.177 34.2869 116.151 34.2869Z" fill="white"/>
</g>
<defs>
<clipPath id="clip0_2038_3634">
<rect width="203" height="57.2564" fill="white" transform="translate(0 0.743652)"/>
</clipPath>
</defs>
</svg>
