<svg width="230" height="48" viewBox="0 0 230 48" fill="none" xmlns="http://www.w3.org/2000/svg">
<g clip-path="url(#clip0_2009_4164)">
<path d="M220.672 3.78577C220.672 3.78577 220.76 7.01798 223.451 8.48163C224.596 7.62314 225.341 6.25332 225.341 4.70524C225.341 2.10633 223.251 0 220.672 0C218.093 0 216.003 2.10633 216.003 4.70524C216.003 6.25332 216.748 7.62314 217.893 8.48163C220.583 7.01798 220.672 3.78577 220.672 3.78577Z" fill="white"/>
<path d="M218.386 8.7818C218.27 8.71612 218.153 8.64576 218.046 8.5707C217.995 8.53786 217.944 8.50502 217.893 8.47687C217.315 8.22355 216.682 8.07812 216.017 8.07812C213.438 8.07812 211.348 10.1845 211.348 12.7834C211.348 15.3823 213.438 17.4886 216.017 17.4886C218.596 17.4886 220.555 15.5042 220.676 13.0132C220.62 12.3893 220.29 10.1188 218.391 8.7818H218.386Z" fill="white"/>
<path d="M225.332 8.06885C224.661 8.06885 224.028 8.21427 223.456 8.4676C223.4 8.49574 223.353 8.53327 223.302 8.56142C223.19 8.63648 223.079 8.70685 222.962 8.77252C221.063 10.1095 220.733 12.3753 220.677 13.004C220.798 15.495 222.832 17.4793 225.336 17.4793C227.841 17.4793 230.005 15.373 230.005 12.7741C230.005 10.1752 227.915 8.06885 225.336 8.06885H225.332Z" fill="white"/>
<path d="M218.772 8.9836L218.767 8.979L218.763 8.9836H218.772Z" fill="white"/>
<path d="M86.5093 37.8202H85.4713C85.0244 37.8202 84.6613 37.4543 84.6613 37.0039V24.6755C84.6613 24.6755 84.6659 24.6615 84.6752 24.6615H86.9236C89.4094 24.6615 91.6392 22.907 92.0348 20.4347C92.5469 17.2635 90.117 14.5145 87.0679 14.5145H84.6752C84.6752 14.5145 84.6613 14.5098 84.6613 14.5004V11.6998C84.6613 9.1947 82.9203 6.94763 80.4671 6.54419C77.3203 6.02816 74.5925 8.47226 74.5925 11.5497V14.5004C74.5925 14.5004 74.5878 14.5145 74.5785 14.5145H72.2743C69.7885 14.5145 67.5587 16.269 67.1584 18.7412C66.6464 21.9124 69.0716 24.6615 72.1253 24.6615H74.5739C74.5739 24.6615 74.5878 24.6662 74.5878 24.6755V40.2174C74.5878 44.6599 78.1908 48.1595 82.5945 47.9953H86.528C89.307 47.9859 91.56 45.7107 91.56 42.9101C91.56 41.7795 91.1923 40.7428 90.5732 39.8984C89.6561 38.6411 88.1805 37.8249 86.5093 37.8249V37.8202Z" fill="white"/>
<path d="M202.009 14.8804C192.946 14.8804 185.577 22.3112 185.577 31.4402C185.577 40.5692 192.951 48 202.009 48C211.068 48 218.437 40.5974 218.502 31.4871C218.437 22.33 211.035 14.8757 202.009 14.8757V14.8804ZM208.191 31.4402C208.191 34.8742 205.417 37.6701 202.009 37.6701C198.602 37.6701 195.828 34.8742 195.828 31.4402C195.828 28.0063 198.602 25.2104 202.009 25.2104C205.417 25.2104 208.191 28.0063 208.191 31.4402Z" fill="white"/>
<path d="M97.0015 48C94.2644 47.9578 92.123 45.5841 92.123 42.8257V30.502C92.123 30.38 92.1324 30.2534 92.137 30.1314C92.9656 19.1681 101.517 15.3777 105.921 14.9039C106.093 14.8851 106.218 14.8804 106.447 14.8757H112.4C115.137 14.8757 117.493 17.0337 117.535 19.7921C117.577 22.588 115.342 24.8679 112.577 24.8679H106.824C105.557 25.1072 102.462 26.1627 102.038 30.7084V42.9993C102.038 45.7858 99.7759 48.0376 97.0015 47.9954V48Z" fill="white"/>
<path d="M146.624 37.1962C147.304 35.3855 147.681 33.4199 147.681 31.3651C147.681 22.2596 140.354 14.8804 131.318 14.8804C122.283 14.8804 114.956 22.2596 114.956 31.3651C114.956 40.4707 122.283 47.8499 131.318 47.8499C133.879 47.8499 136.299 47.2588 138.455 46.2033C139.553 47.3151 141.071 48.0047 142.751 48.0047C146.098 48.0047 148.812 45.2697 148.812 41.8968C148.812 40.0062 147.96 38.3174 146.62 37.1962H146.624ZM131.318 37.473C127.972 37.473 125.258 34.7381 125.258 31.3651C125.258 27.9922 127.972 25.2572 131.318 25.2572C134.665 25.2572 137.379 27.9922 137.379 31.3651C137.379 34.7381 134.665 37.473 131.318 37.473Z" fill="white"/>
<path d="M56.9819 26.857C56.8935 26.857 56.8097 26.8664 56.7259 26.8664V26.857H51.9452C51.1771 26.857 50.5533 26.2284 50.5533 25.4543C50.5533 24.6803 51.1771 24.0517 51.9452 24.0517H61.9721C64.4858 24.0517 66.5247 21.9969 66.5247 19.4637C66.5247 16.9305 64.4858 14.8757 61.9721 14.8757H49.7154C49.6875 14.8757 49.6596 14.8757 49.6316 14.8757C49.5991 14.8757 49.5711 14.8757 49.5432 14.8757C43.7477 14.8757 39.0508 19.6091 39.0508 25.4496C39.0508 30.3988 42.421 34.5505 46.9783 35.7045C47.495 35.9062 48.0536 36.0235 48.6401 36.0235H54.5846C55.3527 36.0235 55.9764 36.6521 55.9764 37.4262C55.9764 38.2002 55.3527 38.8288 54.5846 38.8288H44.5577C42.044 38.8288 40.0051 40.8836 40.0051 43.4168C40.0051 45.95 42.044 48.0047 44.5577 48.0047H56.8144C56.8144 48.0047 56.8516 48.0047 56.8702 48.0047C56.9074 48.0047 56.9447 48.0047 56.9866 48.0047C62.7821 48.0047 67.479 43.2714 67.479 37.4309C67.479 31.5904 62.7821 26.857 56.9866 26.857H56.9819Z" fill="white"/>
<path d="M39.0696 41.4559L26.4172 11.212C26.3195 10.9821 26.2031 10.7663 26.0727 10.5599C25.1045 8.17208 22.6141 6.47388 19.686 6.47388C16.758 6.47388 14.1419 8.26121 13.2295 10.7428C13.1457 10.893 13.0666 11.0525 12.9968 11.212L0.344426 41.4559C-0.675024 43.8953 0.651658 46.649 3.30968 47.6107L3.47726 47.6717C6.13527 48.6287 9.11914 47.4324 10.1386 44.993L12.3637 39.6779C12.4987 39.6873 12.6337 39.6967 12.7687 39.6967H27.0549L29.2707 44.993C30.2902 47.4324 33.2741 48.6334 35.9321 47.6717L36.0997 47.6107C38.7577 46.6537 40.0844 43.8953 39.0649 41.4559H39.0696ZM16.6044 29.5356L19.7047 22.1236L22.8049 29.5356H16.6044Z" fill="white"/>
<path d="M184.81 28.161C184.297 25.8483 182.277 24.1172 179.861 24.1172H173.363C170.56 24.1172 168.284 26.4441 168.284 29.3151C168.284 32.186 170.556 34.5129 173.363 34.5129H174.913V35.5262C173.042 37.0133 170.654 37.853 168.07 37.7122C162.931 37.4261 158.732 33.1618 158.416 27.9077C158.052 21.8186 162.768 16.7662 168.638 16.7662C171.445 16.7662 173.987 17.9249 175.839 19.8014C178.209 22.0062 180.895 22.8788 183.399 20.369C184.135 19.6325 184.684 18.7036 184.861 17.6669C185.117 16.1423 184.712 14.7255 183.902 13.6372L183.939 13.6278C179.973 8.96947 174.024 6.12662 167.423 6.52068C156.796 7.15868 148.365 16.3205 148.347 27.2134C148.328 38.6974 157.419 48.014 168.638 48.014C173.87 48.014 178.628 45.9781 182.221 42.6473C182.952 41.9718 183.599 41.1978 184.097 40.3252C184.786 39.1149 185.066 37.9937 185.066 36.5254V29.8029C185.066 29.2306 184.972 28.6864 184.805 28.1704L184.81 28.161Z" fill="white"/>
</g>
<defs>
<clipPath id="clip0_2009_4164">
<rect width="230" height="48" fill="white"/>
</clipPath>
</defs>
</svg>
