<svg width="204" height="58" viewBox="0 0 204 58" fill="none" xmlns="http://www.w3.org/2000/svg">
<g clip-path="url(#clip0_2239_9914)">
<path d="M195.582 4.38947C195.582 4.38947 195.661 7.2849 198.089 8.59544C199.341 7.66448 200.064 6.06094 199.702 4.31489C199.364 2.68072 198.037 1.3835 196.397 1.07584C193.71 0.572407 191.366 2.61945 191.366 5.21389C191.366 6.60034 192.039 7.82697 193.072 8.59544C195.5 7.2849 195.58 4.38947 195.58 4.38947H195.582Z" fill="white"/>
<path d="M193.519 8.86186C193.414 8.80193 193.311 8.73933 193.211 8.67141C193.163 8.64344 193.121 8.61281 193.07 8.58617C193.07 8.58617 193.071 8.58617 193.073 8.58484C192.3 8.24522 191.408 8.12535 190.473 8.3238C188.827 8.67407 187.522 10.0206 187.231 11.6787C186.764 14.3424 188.801 16.6558 191.379 16.6558C193.636 16.6558 195.473 14.8805 195.582 12.6496C195.531 12.0889 195.233 10.0592 193.519 8.86186Z" fill="white"/>
<path d="M200.692 8.3238C199.757 8.12535 198.865 8.24522 198.092 8.58484C198.092 8.58484 198.094 8.58484 198.095 8.58617C198.046 8.61281 198.002 8.64344 197.954 8.67141C197.854 8.73933 197.751 8.80193 197.646 8.86186C195.931 10.0592 195.632 12.0889 195.583 12.6496C195.692 14.8791 197.53 16.6558 199.786 16.6558C202.363 16.6558 204.401 14.3424 203.934 11.6787C203.643 10.0206 202.338 8.67407 200.692 8.3238Z" fill="white"/>
<path d="M130.668 33.83C131.464 31.7244 131.797 29.5601 131.535 27.1322C130.87 20.9751 126.555 15.8608 120.54 14.3838C110.159 11.8346 100.945 20.2079 102.024 30.3805C102.748 37.2076 108.202 42.7108 115.022 43.4952C117.991 43.8362 121.252 43.1196 123.454 41.9356C124.557 43.045 125.972 43.687 127.66 43.5352C130.004 43.3247 132.165 41.3683 132.57 39.0508C132.936 36.9572 132.114 35.03 130.668 33.83ZM117.477 34.2402C113.849 34.697 110.798 31.6458 111.255 28.0178C111.566 25.5459 113.563 23.5495 116.035 23.2379C119.663 22.781 122.714 25.8323 122.257 29.4602C121.945 31.9321 119.949 33.9286 117.477 34.2402Z" fill="white"/>
<path d="M28.7302 33.83C29.5266 31.7244 29.8596 29.5601 29.5972 27.1322C28.9326 20.9751 24.6174 15.8608 18.6028 14.3838C8.22107 11.8346 -0.992629 20.2079 0.0861656 30.3805C0.810689 37.2076 6.26459 42.7108 13.085 43.4952C16.0537 43.8362 19.314 43.1196 21.5169 41.9356C22.6196 43.045 24.0341 43.687 25.7228 43.5352C28.0669 43.3247 30.2271 41.3683 30.632 39.0508C30.9983 36.9572 30.1765 35.03 28.7302 33.83ZM15.5382 34.2402C11.9103 34.697 8.85903 31.6458 9.31585 28.0178C9.6275 25.5459 11.6239 23.5495 14.0958 23.2379C17.7238 22.781 20.775 25.8323 20.3182 29.4602C20.0066 31.9321 18.0101 33.9286 15.5382 34.2402Z" fill="white"/>
<path d="M193.426 8.69501C193.426 8.69501 193.424 8.69382 193.422 8.69263C193.422 8.69263 193.421 8.69382 193.42 8.69501H193.427H193.426Z" fill="white"/>
<path d="M47.1911 24.6657C47.1139 24.6657 47.0367 24.6723 46.9594 24.675V24.6657H42.6842C42.1355 24.6657 41.6121 24.3354 41.4496 23.8106C41.1819 22.9476 41.8198 22.1551 42.6429 22.1551H51.7034C53.9649 22.1551 55.7975 20.3225 55.7975 18.061V18.0357C55.7975 15.7743 53.9649 13.9417 51.7034 13.9417H40.6291C40.6038 13.9417 40.5799 13.9443 40.5546 13.9456C40.5266 13.9456 40.5 13.9417 40.472 13.9417C35.2432 13.9417 31.0039 18.1809 31.0039 23.4097C31.0039 27.8395 34.0472 31.558 38.1559 32.5915C38.6207 32.7739 39.1255 32.8778 39.6556 32.8778H44.9909C45.5317 32.8778 46.0431 33.2041 46.2082 33.7195C46.4866 34.5879 45.846 35.387 45.0189 35.387H36.0756C34.1484 35.387 32.3904 36.6669 31.9708 38.5475C31.3728 41.2272 33.3946 43.6005 35.9717 43.6005H47.034C47.0513 43.6005 47.0686 43.5978 47.0859 43.5978C47.1206 43.5978 47.1552 43.6005 47.1898 43.6005C52.4186 43.6005 56.6579 39.3612 56.6579 34.1324C56.6579 28.9036 52.4186 24.6643 47.1898 24.6643L47.1911 24.6657Z" fill="white"/>
<path d="M74.9445 34.5319H73.5181C73.1132 34.5319 72.7855 34.2042 72.7855 33.7993H72.7842V23.5881C72.7842 23.1246 73.1598 22.7477 73.6246 22.7477H74.8353C77.0741 22.7477 79.0732 21.1801 79.4381 18.9706C79.9069 16.1271 77.7147 13.6565 74.9564 13.6565H72.7855V5.66412C72.7855 3.42528 71.218 1.42485 69.0084 1.06126C66.1649 0.59245 63.6944 2.78467 63.6944 5.54292V13.6565H61.594C59.3552 13.6565 57.3548 15.2241 56.9912 17.4323C56.5224 20.2758 58.7146 22.7464 61.4728 22.7464H62.8207C63.3028 22.7464 63.6944 23.1379 63.6944 23.62V36.6868C63.6944 40.6304 66.968 43.7855 70.9076 43.6403H70.921H74.9578C77.4683 43.6324 79.5007 41.596 79.5007 39.0841C79.5007 38.0732 79.1677 37.1423 78.611 36.3871C77.7813 35.2617 76.4508 34.5292 74.9458 34.5292L74.9445 34.5319Z" fill="white"/>
<path d="M98.9414 13.9761H94.6915C86.9335 13.9761 80.6445 20.265 80.6445 28.023V39.0014C80.6445 41.472 82.577 43.5963 85.0463 43.6349C87.5501 43.6735 89.5919 41.6558 89.5919 39.1613V27.9205C89.5919 27.9138 89.5919 27.9085 89.5919 27.9018V27.8139C89.5919 27.4104 89.6465 27.0202 89.7384 26.6459C89.7477 26.6073 89.757 26.57 89.7677 26.5327C89.8063 26.3915 89.8502 26.2544 89.9009 26.1185C89.9182 26.0719 89.9342 26.0239 89.9528 25.9773C90.6787 24.19 92.43 22.9274 94.4784 22.9274H94.525C94.5437 22.9274 94.5663 22.9247 94.5849 22.9247C94.5849 22.9247 95.1004 22.9247 95.6198 22.9247H99.0999C101.594 22.9247 103.612 20.883 103.574 18.3792C103.535 15.9086 101.409 13.9761 98.9401 13.9761H98.9414Z" fill="white"/>
<path d="M159.613 14.1387C157.561 13.2317 155.377 13.9096 154.113 15.5238C152.124 14.5262 149.891 14.0028 147.604 14.0028C139.427 14.0028 132.775 20.6314 132.775 28.7783C132.775 36.9252 139.428 43.5538 147.604 43.5538C149.491 43.5538 151.376 43.1822 153.127 42.471V42.5922C153.127 45.6994 150.598 48.5189 147.495 48.6707C145.582 48.764 143.815 48.0235 142.683 46.6663C141.868 45.702 140.729 45.1294 139.479 45.0508C138.26 44.9749 137.093 45.3757 136.202 46.1868C135.271 46.9487 134.703 48.0408 134.601 49.2647C134.5 50.4847 134.876 51.69 135.676 52.6796C138.544 56.0159 142.734 57.9297 147.173 57.9297C155.527 57.9297 162.325 51.108 162.325 42.724V18.4632C162.325 16.6212 161.298 14.8832 159.612 14.1387H159.613ZM148.299 34.2562C144.669 34.7143 141.615 31.6604 142.073 28.0298C142.385 25.5552 144.382 23.5575 146.857 23.2458C150.488 22.7877 153.542 25.8416 153.083 29.4735C152.772 31.9481 150.774 33.9459 148.299 34.2575V34.2562Z" fill="white"/>
<path d="M179.264 13.9522C170.314 13.3861 162.935 20.7659 163.501 29.7146C163.967 37.0956 169.957 43.0836 177.338 43.5498C186.288 44.1145 193.665 36.7374 193.1 27.7874C192.634 20.4063 186.645 14.4183 179.264 13.9522ZM179.021 34.2561C175.391 34.7143 172.337 31.6604 172.795 28.0298C173.107 25.5552 175.104 23.5574 177.579 23.2458C181.209 22.7876 184.263 25.8415 183.805 29.4735C183.494 31.9481 181.496 33.9458 179.021 34.2575V34.2561Z" fill="white"/>
</g>
<defs>
<clipPath id="clip0_2239_9914">
<rect width="204" height="56.931" fill="white" transform="translate(0 1)"/>
</clipPath>
</defs>
</svg>
